<?xml version="1.0" encoding="UTF-8"?>
<!DOCTYPE svg PUBLIC "-//W3C//DTD SVG 1.1//EN" "http://www.w3.org/Graphics/SVG/1.1/DTD/svg11.dtd">
<svg xmlns="http://www.w3.org/2000/svg" version="1.1" width="341px" height="341px" style="shape-rendering:geometricPrecision; text-rendering:geometricPrecision; image-rendering:optimizeQuality; fill-rule:evenodd; clip-rule:evenodd" xmlns:xlink="http://www.w3.org/1999/xlink">
<g><path style="opacity:0.702" fill="#495b60" d="M 194.5,16.5 C 193.883,16.3893 193.383,16.056 193,15.5C 192.814,12.9644 192.314,10.631 191.5,8.5C 189.393,7.53178 187.059,7.19845 184.5,7.5C 173.531,6.59309 162.531,6.25976 151.5,6.5C 163.969,4.77725 176.636,4.27725 189.5,5C 193.907,7.53165 195.574,11.365 194.5,16.5 Z"/></g>
<g><path style="opacity:1" fill="#23707f" d="M 184.5,7.5 C 187.059,7.19845 189.393,7.53178 191.5,8.5C 191.665,11.5184 191.498,14.5184 191,17.5C 190.586,17.0426 190.086,16.7093 189.5,16.5C 182.097,19.2116 174.764,21.8783 167.5,24.5C 165.073,24.477 162.74,23.977 160.5,23C 161.167,22.3333 161.833,21.6667 162.5,21C 158.302,18.3053 158.635,16.6387 163.5,16C 159.778,15.7618 156.111,15.2618 152.5,14.5C 150.572,15.7122 148.905,15.3789 147.5,13.5C 148.975,11.5905 150.975,10.4238 153.5,10C 164.055,9.96909 174.388,9.13576 184.5,7.5 Z"/></g>
<g><path style="opacity:1" fill="#376e7e" d="M 151.5,6.5 C 162.531,6.25976 173.531,6.59309 184.5,7.5C 174.388,9.13576 164.055,9.96909 153.5,10C 150.975,10.4238 148.975,11.5905 147.5,13.5C 145.174,14.6868 142.84,16.0202 140.5,17.5C 140.704,16.4706 140.204,15.4706 139,14.5C 136.43,15.009 134.097,16.009 132,17.5C 128.474,15.4856 124.64,14.1523 120.5,13.5C 130.463,10.0378 140.797,7.70448 151.5,6.5 Z"/></g>
<g><path style="opacity:1" fill="#2a707f" d="M 120.5,13.5 C 124.64,14.1523 128.474,15.4856 132,17.5C 134.097,16.009 136.43,15.009 139,14.5C 140.204,15.4706 140.704,16.4706 140.5,17.5C 142.84,16.0202 145.174,14.6868 147.5,13.5C 148.905,15.3789 150.572,15.7122 152.5,14.5C 156.111,15.2618 159.778,15.7618 163.5,16C 158.635,16.6387 158.302,18.3053 162.5,21C 161.833,21.6667 161.167,22.3333 160.5,23C 162.74,23.977 165.073,24.477 167.5,24.5C 167.64,26.1238 166.973,27.2904 165.5,28C 161.124,29.4228 156.957,31.2562 153,33.5C 152.275,32.9415 151.442,32.6082 150.5,32.5C 149.994,33.8239 148.661,34.4906 146.5,34.5C 146.169,36.3224 145.502,37.9891 144.5,39.5C 141.523,41.4667 138.523,43.4667 135.5,45.5C 132.839,45.8209 130.172,45.1542 127.5,43.5C 126.908,39.926 128.408,37.926 132,37.5C 132.308,38.3081 132.808,38.9747 133.5,39.5C 136.603,39.1315 139.603,37.7982 142.5,35.5C 143.429,34.3112 143.762,32.9778 143.5,31.5C 147.55,32.3115 150.216,30.8115 151.5,27C 147.514,26.5012 143.514,26.3345 139.5,26.5C 139.747,25.1237 141.081,24.2903 143.5,24C 143.167,23.6667 142.833,23.3333 142.5,23C 139.397,21.8189 136.23,21.3189 133,21.5C 131.08,20.9116 129.413,19.9116 128,18.5C 127.667,18.8333 127.333,19.1667 127,19.5C 123.534,18.798 120.034,18.1313 116.5,17.5C 114.76,19.5306 113.093,19.1973 111.5,16.5C 114.285,14.9049 117.285,13.9049 120.5,13.5 Z"/></g>
<g><path style="opacity:1" fill="#296f81" d="M 109.5,17.5 C 109.842,16.6618 110.508,16.3284 111.5,16.5C 113.093,19.1973 114.76,19.5306 116.5,17.5C 120.034,18.1313 123.534,18.798 127,19.5C 127.333,19.1667 127.667,18.8333 128,18.5C 129.413,19.9116 131.08,20.9116 133,21.5C 136.23,21.3189 139.397,21.8189 142.5,23C 142.833,23.3333 143.167,23.6667 143.5,24C 141.081,24.2903 139.747,25.1237 139.5,26.5C 138.453,29.1729 136.119,31.1729 132.5,32.5C 131.359,31.661 130.026,30.9943 128.5,30.5C 127.833,28.1667 127.167,25.8333 126.5,23.5C 123.569,24.2728 120.736,25.2728 118,26.5C 114.665,24.415 111.165,22.7483 107.5,21.5C 108.172,20.7326 109.005,20.0659 110,19.5C 110.692,18.5632 110.525,17.8966 109.5,17.5 Z"/></g>
<g><path style="opacity:0.976" fill="#4a757e" d="M 191.5,8.5 C 192.314,10.631 192.814,12.9644 193,15.5C 193.383,16.056 193.883,16.3893 194.5,16.5C 194.141,18.371 193.141,19.871 191.5,21C 175.159,25.5016 159.492,31.6682 144.5,39.5C 145.502,37.9891 146.169,36.3224 146.5,34.5C 148.661,34.4906 149.994,33.8239 150.5,32.5C 151.442,32.6082 152.275,32.9415 153,33.5C 156.957,31.2562 161.124,29.4228 165.5,28C 166.973,27.2904 167.64,26.1238 167.5,24.5C 174.764,21.8783 182.097,19.2116 189.5,16.5C 190.086,16.7093 190.586,17.0426 191,17.5C 191.498,14.5184 191.665,11.5184 191.5,8.5 Z"/></g>
<g><path style="opacity:1" fill="#2c7582" d="M 107.5,21.5 C 111.165,22.7483 114.665,24.415 118,26.5C 120.736,25.2728 123.569,24.2728 126.5,23.5C 127.167,25.8333 127.833,28.1667 128.5,30.5C 130.026,30.9943 131.359,31.661 132.5,32.5C 129.438,32.8414 127.272,34.5081 126,37.5C 125.722,36.5842 125.222,35.9175 124.5,35.5C 119.417,36.8724 114.417,38.5391 109.5,40.5C 107.591,39.6518 105.591,39.3184 103.5,39.5C 100.833,39.5 98.1667,39.5 95.5,39.5C 95.7135,37.8561 95.3802,36.3561 94.5,35C 92.1201,35.5218 89.7868,35.3552 87.5,34.5C 88.1408,33.5178 88.8075,32.5178 89.5,31.5C 95.823,28.4553 101.823,25.1219 107.5,21.5 Z"/></g>
<g><path style="opacity:1" fill="#2a7784" d="M 139.5,26.5 C 143.514,26.3345 147.514,26.5012 151.5,27C 150.216,30.8115 147.55,32.3115 143.5,31.5C 143.762,32.9778 143.429,34.3112 142.5,35.5C 139.603,37.7982 136.603,39.1315 133.5,39.5C 132.808,38.9747 132.308,38.3081 132,37.5C 128.408,37.926 126.908,39.926 127.5,43.5C 127.167,43.5 126.833,43.5 126.5,43.5C 124.167,43.5 121.833,43.5 119.5,43.5C 120.451,41.3805 121.951,39.7138 124,38.5C 124.483,37.552 124.649,36.552 124.5,35.5C 125.222,35.9175 125.722,36.5842 126,37.5C 127.272,34.5081 129.438,32.8414 132.5,32.5C 136.119,31.1729 138.453,29.1729 139.5,26.5 Z"/></g>
<g><path style="opacity:1" fill="#3d808c" d="M 87.5,34.5 C 89.7868,35.3552 92.1201,35.5218 94.5,35C 95.3802,36.3561 95.7135,37.8561 95.5,39.5C 98.1667,39.5 100.833,39.5 103.5,39.5C 104.048,41.3936 105.048,43.0603 106.5,44.5C 104.929,47.0934 102.596,48.0934 99.5,47.5C 99.5792,48.9305 99.2458,50.2638 98.5,51.5C 96.1659,53.4408 93.6659,55.1075 91,56.5C 91.5743,58.7756 91.4076,61.1089 90.5,63.5C 86.1366,68.8579 81.8032,74.1912 77.5,79.5C 77.3444,76.9339 77.6777,74.4339 78.5,72C 82.049,68.6198 85.3823,65.1198 88.5,61.5C 89.641,59.5787 89.8077,57.5787 89,55.5C 87.583,54.9221 86.7496,53.9221 86.5,52.5C 86.5,51.1667 86.5,49.8333 86.5,48.5C 85.5,48.5 84.5,48.5 83.5,48.5C 84.7196,46.4186 85.3863,44.4186 85.5,42.5C 83.8333,41.1667 82.1667,39.8333 80.5,38.5C 82.5664,36.8009 84.8997,35.4676 87.5,34.5 Z"/></g>
<g><path style="opacity:1" fill="#4c7f8a" d="M 124.5,35.5 C 124.649,36.552 124.483,37.552 124,38.5C 121.951,39.7138 120.451,41.3805 119.5,43.5C 116.646,44.0256 113.979,45.0256 111.5,46.5C 111.167,45.1667 110.833,45.1667 110.5,46.5C 103.265,51.3936 96.5987,57.0602 90.5,63.5C 91.4076,61.1089 91.5743,58.7756 91,56.5C 93.6659,55.1075 96.1659,53.4408 98.5,51.5C 99.2458,50.2638 99.5792,48.9305 99.5,47.5C 102.596,48.0934 104.929,47.0934 106.5,44.5C 105.048,43.0603 104.048,41.3936 103.5,39.5C 105.591,39.3184 107.591,39.6518 109.5,40.5C 114.417,38.5391 119.417,36.8724 124.5,35.5 Z"/></g>
<g><path style="opacity:1" fill="#69918c" d="M 248.5,26.5 C 252.507,27.5875 256.007,29.5875 259,32.5C 260.122,43.0666 255.955,46.2333 246.5,42C 243.333,39.5 240.167,37 237,34.5C 235.878,29.0806 237.711,25.0806 242.5,22.5C 244.813,23.5005 246.813,24.8338 248.5,26.5 Z"/></g>
<g><path style="opacity:1" fill="#58a199" d="M 248.5,26.5 C 248.855,30.1937 250.855,32.527 254.5,33.5C 256.552,38.6169 254.885,40.4502 249.5,39C 246.973,36.8946 244.64,34.5613 242.5,32C 241.551,31.3828 240.718,31.5494 240,32.5C 239.192,30.4213 239.359,28.4213 240.5,26.5C 243.198,27.8236 245.864,27.8236 248.5,26.5 Z"/></g>
<g><path style="opacity:1" fill="#507d84" d="M 109.5,17.5 C 110.525,17.8966 110.692,18.5632 110,19.5C 109.005,20.0659 108.172,20.7326 107.5,21.5C 101.823,25.1219 95.823,28.4553 89.5,31.5C 88.8075,32.5178 88.1408,33.5178 87.5,34.5C 84.8997,35.4676 82.5664,36.8009 80.5,38.5C 82.1667,39.8333 83.8333,41.1667 85.5,42.5C 85.3863,44.4186 84.7196,46.4186 83.5,48.5C 84.5,48.5 85.5,48.5 86.5,48.5C 86.5,49.8333 86.5,51.1667 86.5,52.5C 82.2241,55.2648 78.0574,58.2648 74,61.5C 72.4807,65.6765 70.9807,69.8431 69.5,74C 66.5775,76.4155 64.2442,79.2488 62.5,82.5C 60.7531,83.9807 59.5864,85.9807 59,88.5C 58.1841,89.8228 57.0174,90.4894 55.5,90.5C 61.6381,77.7115 68.9715,65.7115 77.5,54.5C 69.1948,61.1379 61.5281,68.4713 54.5,76.5C 53.4017,75.3991 53.235,74.0657 54,72.5C 56.1315,69.8982 57.9648,67.2316 59.5,64.5C 61.711,64.0332 63.711,63.0332 65.5,61.5C 64.3913,60.0353 64.8913,59.0353 67,58.5C 67.3333,57.5 67.6667,56.5 68,55.5C 70.8108,52.4273 74.1442,50.0939 78,48.5C 79.0793,45.9373 79.5793,43.2706 79.5,40.5C 78.1779,40.33 77.0113,40.6634 76,41.5C 75.5621,44.376 74.5621,47.0427 73,49.5C 71.9805,48.3128 70.8139,47.3128 69.5,46.5C 67.3848,48.6152 65.0514,48.9485 62.5,47.5C 76.3274,34.7451 91.9941,24.7451 109.5,17.5 Z M 81.5,50.5 C 81.5,51.8333 80.8333,52.5 79.5,52.5C 79.8333,51.5 80.5,50.8333 81.5,50.5 Z M 79.5,52.5 C 79.5,53.8333 78.8333,54.5 77.5,54.5C 77.8333,53.5 78.5,52.8333 79.5,52.5 Z"/></g>
<g><path style="opacity:1" fill="#497880" d="M 126.5,43.5 C 126.833,43.5 127.167,43.5 127.5,43.5C 130.172,45.1542 132.839,45.8209 135.5,45.5C 123.5,54.1667 113.167,64.5 104.5,76.5C 104.5,76.1667 104.5,75.8333 104.5,75.5C 104.018,74.5837 103.685,73.5837 103.5,72.5C 105.094,69.5538 106.594,66.5538 108,63.5C 109.011,62.6634 110.178,62.33 111.5,62.5C 111.351,61.448 111.517,60.448 112,59.5C 119.215,57.0627 123.048,52.0627 123.5,44.5C 124.791,44.7373 125.791,44.404 126.5,43.5 Z"/></g>
<g><path style="opacity:1" fill="#40848b" d="M 54.5,76.5 C 54.1667,77.5 53.5,78.1667 52.5,78.5C 51.8466,77.1932 51.1799,75.8599 50.5,74.5C 51.7472,72.677 52.4139,70.677 52.5,68.5C 56.2063,66.6445 59.5397,64.1445 62.5,61C 60.6763,60.34 59.343,59.1733 58.5,57.5C 57.6832,55.6923 58.3498,54.1923 60.5,53C 59.9558,52.2828 59.2891,51.7828 58.5,51.5C 59.5,49.8333 60.8333,48.5 62.5,47.5C 65.0514,48.9485 67.3848,48.6152 69.5,46.5C 70.8139,47.3128 71.9805,48.3128 73,49.5C 74.5621,47.0427 75.5621,44.376 76,41.5C 77.0113,40.6634 78.1779,40.33 79.5,40.5C 79.5793,43.2706 79.0793,45.9373 78,48.5C 74.1442,50.0939 70.8108,52.4273 68,55.5C 67.6667,56.5 67.3333,57.5 67,58.5C 64.8913,59.0353 64.3913,60.0353 65.5,61.5C 63.711,63.0332 61.711,64.0332 59.5,64.5C 57.9648,67.2316 56.1315,69.8982 54,72.5C 53.235,74.0657 53.4017,75.3991 54.5,76.5 Z"/></g>
<g><path style="opacity:0.986" fill="#679290" d="M 298.5,68.5 C 299.167,70.5 299.833,72.5 300.5,74.5C 299.1,73.9002 298.1,72.9002 297.5,71.5C 295.663,68.8947 293.33,66.728 290.5,65C 278.512,65.3724 266.512,65.3724 254.5,65C 252.372,64.3448 250.372,63.5114 248.5,62.5C 248.586,61.5041 248.252,60.6708 247.5,60C 243.503,57.5549 239.169,55.8882 234.5,55C 231.498,52.497 228.165,50.497 224.5,49C 219.579,47.6135 214.745,46.1135 210,44.5C 206.772,43.9923 204.272,44.9923 202.5,47.5C 204.144,50.0806 206.311,50.7473 209,49.5C 215.555,53.6017 222.722,56.1017 230.5,57C 233.385,59.0587 236.385,60.8921 239.5,62.5C 239.5,64.1667 239.5,65.8333 239.5,67.5C 226.258,60.1401 212.258,54.6401 197.5,51C 196.424,49.2739 196.257,47.4406 197,45.5C 199.324,41.9807 202.491,39.9807 206.5,39.5C 210.961,40.1529 215.294,41.3196 219.5,43C 232.167,48.3333 244.833,53.6667 257.5,59C 267.821,60.5883 278.155,60.9216 288.5,60C 293.249,61.2545 296.582,64.0878 298.5,68.5 Z"/></g>
<g><path style="opacity:1" fill="#57a59d" d="M 248.5,62.5 C 245.344,61.4489 242.344,61.4489 239.5,62.5C 236.385,60.8921 233.385,59.0587 230.5,57C 222.722,56.1017 215.555,53.6017 209,49.5C 206.311,50.7473 204.144,50.0806 202.5,47.5C 204.272,44.9923 206.772,43.9923 210,44.5C 214.745,46.1135 219.579,47.6135 224.5,49C 228.165,50.497 231.498,52.497 234.5,55C 239.169,55.8882 243.503,57.5549 247.5,60C 248.252,60.6708 248.586,61.5041 248.5,62.5 Z"/></g>
<g><path style="opacity:1" fill="#3d878e" d="M 86.5,52.5 C 86.7496,53.9221 87.583,54.9221 89,55.5C 89.8077,57.5787 89.641,59.5787 88.5,61.5C 85.3823,65.1198 82.049,68.6198 78.5,72C 77.6777,74.4339 77.3444,76.9339 77.5,79.5C 77.5,79.8333 77.5,80.1667 77.5,80.5C 75.632,79.2431 73.9653,79.5764 72.5,81.5C 71.337,85.2801 69.6704,88.6134 67.5,91.5C 68.4485,88.128 68.4485,84.7947 67.5,81.5C 65.6029,80.3482 63.9362,80.6815 62.5,82.5C 64.2442,79.2488 66.5775,76.4155 69.5,74C 70.9807,69.8431 72.4807,65.6765 74,61.5C 78.0574,58.2648 82.2241,55.2648 86.5,52.5 Z"/></g>
<g><path style="opacity:1" fill="#4c9c96" d="M 248.5,62.5 C 250.372,63.5114 252.372,64.3448 254.5,65C 266.512,65.3724 278.512,65.3724 290.5,65C 293.33,66.728 295.663,68.8947 297.5,71.5C 298.291,74.5352 299.291,77.5352 300.5,80.5C 300.421,83.8538 299.087,84.8538 296.5,83.5C 294.633,79.4303 291.966,75.9303 288.5,73C 275.808,72.761 263.141,72.0944 250.5,71C 247.619,68.5396 244.286,67.373 240.5,67.5C 240.167,67.5 239.833,67.5 239.5,67.5C 239.5,65.8333 239.5,64.1667 239.5,62.5C 242.344,61.4489 245.344,61.4489 248.5,62.5 Z"/></g>
<g><path style="opacity:0.773" fill="#68958f" d="M 179.5,70.5 C 180.998,77.1867 179.498,83.1867 175,88.5C 173.855,87.3157 172.688,87.3157 171.5,88.5C 167.044,88.3624 164.044,86.1957 162.5,82C 160.899,81.7266 159.399,81.2266 158,80.5C 157.333,77.5 157.333,74.5 158,71.5C 163.091,67.1368 168.924,65.6368 175.5,67C 176.384,68.7198 177.717,69.8865 179.5,70.5 Z M 166.5,68.5 C 168.857,68.3367 171.19,68.5034 173.5,69C 175.405,70.8153 177.072,72.8153 178.5,75C 175.417,86.484 169.917,87.984 162,79.5C 160.393,74.4383 161.893,70.7716 166.5,68.5 Z"/></g>
<g><path style="opacity:0.851" fill="#659091" d="M 240.5,67.5 C 244.286,67.373 247.619,68.5396 250.5,71C 263.141,72.0944 275.808,72.761 288.5,73C 291.966,75.9303 294.633,79.4303 296.5,83.5C 298.666,85.8367 300.666,88.3367 302.5,91C 302.043,91.414 301.709,91.914 301.5,92.5C 303.72,101.209 306.72,109.542 310.5,117.5C 310.457,118.416 310.124,119.083 309.5,119.5C 303.989,106.804 298.156,94.1375 292,81.5C 290.087,77.4149 286.92,75.0816 282.5,74.5C 272.141,75.9079 261.808,75.7413 251.5,74C 247.44,72.3109 243.773,70.1442 240.5,67.5 Z"/></g>
<g><path style="opacity:1" fill="#3f828b" d="M 119.5,43.5 C 121.833,43.5 124.167,43.5 126.5,43.5C 125.791,44.404 124.791,44.7373 123.5,44.5C 123.048,52.0627 119.215,57.0627 112,59.5C 111.517,60.448 111.351,61.448 111.5,62.5C 110.178,62.33 109.011,62.6634 108,63.5C 106.594,66.5538 105.094,69.5538 103.5,72.5C 103.685,73.5837 104.018,74.5837 104.5,75.5C 103.209,75.2627 102.209,75.596 101.5,76.5C 99.2574,72.5779 97.5907,73.0779 96.5,78C 95.552,78.4828 94.552,78.6495 93.5,78.5C 93.7148,76.8212 93.0481,75.8212 91.5,75.5C 92.3584,72.7653 93.8584,70.4319 96,68.5C 96.765,66.9343 96.5983,65.6009 95.5,64.5C 100.023,58.1305 105.023,52.1305 110.5,46.5C 110.833,46.5 111.167,46.5 111.5,46.5C 113.979,45.0256 116.646,44.0256 119.5,43.5 Z"/></g>
<g><path style="opacity:0.541" fill="#6a938d" d="M 177.5,54.5 C 173.979,55.3712 170.312,56.2045 166.5,57C 165.939,58.5655 166.606,59.8989 168.5,61C 166.299,61.8249 164.466,61.3249 163,59.5C 161.601,60.2266 160.101,60.7266 158.5,61C 156.367,63.5098 153.867,65.6765 151,67.5C 148.638,74.0239 149.472,80.0239 153.5,85.5C 154.219,87.7638 154.552,90.0971 154.5,92.5C 144.727,80.2336 145.394,68.4003 156.5,57C 163.181,52.2292 170.181,51.3959 177.5,54.5 Z"/></g>
<g><path style="opacity:1" fill="#468c8d" d="M 58.5,57.5 C 59.343,59.1733 60.6763,60.34 62.5,61C 59.5397,64.1445 56.2063,66.6445 52.5,68.5C 52.4139,70.677 51.7472,72.677 50.5,74.5C 51.1799,75.8599 51.8466,77.1932 52.5,78.5C 49.1667,83.5 45.8333,88.5 42.5,93.5C 39.753,90.7687 37.4197,91.102 35.5,94.5C 35.7148,92.8212 35.0481,91.8212 33.5,91.5C 35.0955,87.2549 37.0955,83.2549 39.5,79.5C 40.5,79.5 41.5,79.5 42.5,79.5C 42.3832,77.5165 43.0499,75.8498 44.5,74.5C 44.1667,73.8333 43.8333,73.1667 43.5,72.5C 46.1848,68.9395 49.3515,65.9395 53,63.5C 53.6252,60.3754 55.4585,58.3754 58.5,57.5 Z"/></g>
<g><path style="opacity:1" fill="#53a495" d="M 177.5,54.5 C 177.833,54.5 178.167,54.5 178.5,54.5C 178.433,55.9587 178.766,57.2921 179.5,58.5C 176.821,58.5246 175.488,59.858 175.5,62.5C 179.544,62.2669 182.377,63.9335 184,67.5C 184.333,67.1667 184.667,66.8333 185,66.5C 186.026,71.4131 184.692,72.4131 181,69.5C 180.235,69.5699 179.735,69.9033 179.5,70.5C 177.717,69.8865 176.384,68.7198 175.5,67C 168.924,65.6368 163.091,67.1368 158,71.5C 157.333,74.5 157.333,77.5 158,80.5C 159.399,81.2266 160.899,81.7266 162.5,82C 164.044,86.1957 167.044,88.3624 171.5,88.5C 171.5,89.8333 171.5,91.1667 171.5,92.5C 166.413,91.8949 161.413,91.8949 156.5,92.5C 157.092,89.3695 156.092,87.0361 153.5,85.5C 149.472,80.0239 148.638,74.0239 151,67.5C 153.867,65.6765 156.367,63.5098 158.5,61C 160.101,60.7266 161.601,60.2266 163,59.5C 164.466,61.3249 166.299,61.8249 168.5,61C 166.606,59.8989 165.939,58.5655 166.5,57C 170.312,56.2045 173.979,55.3712 177.5,54.5 Z"/></g>
<g><path style="opacity:1" fill="#529c99" d="M 178.5,54.5 C 181.1,55.9188 183.6,57.5854 186,59.5C 188.564,63.4622 190.731,67.6288 192.5,72C 194.927,72.9023 197.26,73.7356 199.5,74.5C 199.5,75.8333 199.5,77.1667 199.5,78.5C 204.028,78.9619 208.528,79.6286 213,80.5C 214.169,81.0085 215.002,81.8419 215.5,83C 222.704,85.5205 229.537,88.6872 236,92.5C 237.533,93.6953 239.033,93.6953 240.5,92.5C 241.288,93.7701 242.288,94.7701 243.5,95.5C 243.937,97.0744 244.937,98.2411 246.5,99C 245.391,99.6377 244.225,100.138 243,100.5C 241.467,99.3047 239.967,99.3047 238.5,100.5C 236.851,99.3523 235.351,98.019 234,96.5C 233.329,97.2524 232.496,97.5858 231.5,97.5C 220.301,93.0715 208.967,88.9048 197.5,85C 194.314,85.1141 191.314,84.9474 188.5,84.5C 189.424,82.3516 189.424,80.0183 188.5,77.5C 188.709,76.0055 189.376,74.8388 190.5,74C 188.489,71.1231 187.155,67.9564 186.5,64.5C 183.772,62.7587 181.439,60.7587 179.5,58.5C 178.766,57.2921 178.433,55.9587 178.5,54.5 Z"/></g>
<g><path style="opacity:0.686" fill="#5e7e81" d="M 298.5,68.5 C 306.006,77.4972 312.006,87.4972 316.5,98.5C 315.732,99.2625 315.232,100.263 315,101.5C 314.304,97.0384 312.304,93.3717 309,90.5C 308.225,86.5972 306.225,83.5972 303,81.5C 302.153,79.1457 301.32,76.8123 300.5,74.5C 299.833,72.5 299.167,70.5 298.5,68.5 Z"/></g>
<g><path style="opacity:0.914" fill="#679291" d="M 188.5,84.5 C 191.314,84.9474 194.314,85.1141 197.5,85C 208.967,88.9048 220.301,93.0715 231.5,97.5C 232.167,99.1667 232.833,100.833 233.5,102.5C 220.725,95.8491 207.225,90.8491 193,87.5C 188.944,89.8686 185.111,92.702 181.5,96C 172.418,101.198 164.084,100.365 156.5,93.5C 160.314,93.7662 164.314,94.4328 168.5,95.5C 171.826,94.9534 175.16,94.4534 178.5,94C 181.944,90.941 185.277,87.7744 188.5,84.5 Z"/></g>
<g><path style="opacity:0.949" fill="#5d8385" d="M 199.5,74.5 C 205.34,75.2788 211.007,76.7788 216.5,79C 229.864,85.0169 243.197,91.0169 256.5,97C 267.125,98.1781 277.791,98.8448 288.5,99C 295.57,105.241 300.904,112.741 304.5,121.5C 303.85,121.804 303.183,122.137 302.5,122.5C 301.52,121.019 300.353,119.685 299,118.5C 298.028,113.969 296.695,110.303 295,107.5C 294.333,106.167 293.667,106.167 293,107.5C 292.51,106.207 292.343,104.873 292.5,103.5C 291.5,103.5 290.5,103.5 289.5,103.5C 289.196,102.85 288.863,102.183 288.5,101.5C 277.5,100.833 266.5,100.167 255.5,99.5C 251.549,98.0753 247.549,96.7419 243.5,95.5C 242.288,94.7701 241.288,93.7701 240.5,92.5C 239.033,93.6953 237.533,93.6953 236,92.5C 229.537,88.6872 222.704,85.5205 215.5,83C 215.002,81.8419 214.169,81.0085 213,80.5C 208.528,79.6286 204.028,78.9619 199.5,78.5C 199.5,77.1667 199.5,75.8333 199.5,74.5 Z"/></g>
<g><path style="opacity:1" fill="#448d91" d="M 297.5,71.5 C 298.1,72.9002 299.1,73.9002 300.5,74.5C 301.32,76.8123 302.153,79.1457 303,81.5C 306.225,83.5972 308.225,86.5972 309,90.5C 312.304,93.3717 314.304,97.0384 315,101.5C 315.232,100.263 315.732,99.2625 316.5,98.5C 316.5,98.8333 316.5,99.1667 316.5,99.5C 316.481,101.06 316.148,102.56 315.5,104C 317.434,106.502 318.434,109.336 318.5,112.5C 318.478,116.143 319.478,119.476 321.5,122.5C 321.333,123.167 321.167,123.833 321,124.5C 318.175,122.994 316.342,123.827 315.5,127C 316.904,130.921 317.904,134.921 318.5,139C 317.906,139.464 317.239,139.631 316.5,139.5C 316.136,133.876 314.803,128.543 312.5,123.5C 311.735,122.388 310.735,121.721 309.5,121.5C 309.5,120.833 309.5,120.167 309.5,119.5C 310.124,119.083 310.457,118.416 310.5,117.5C 306.72,109.542 303.72,101.209 301.5,92.5C 301.709,91.914 302.043,91.414 302.5,91C 300.666,88.3367 298.666,85.8367 296.5,83.5C 299.087,84.8538 300.421,83.8538 300.5,80.5C 299.291,77.5352 298.291,74.5352 297.5,71.5 Z"/></g>
<g><path style="opacity:1" fill="#529f98" d="M 179.5,58.5 C 181.439,60.7587 183.772,62.7587 186.5,64.5C 187.155,67.9564 188.489,71.1231 190.5,74C 189.376,74.8388 188.709,76.0055 188.5,77.5C 189.424,80.0183 189.424,82.3516 188.5,84.5C 185.277,87.7744 181.944,90.941 178.5,94C 175.16,94.4534 171.826,94.9534 168.5,95.5C 164.314,94.4328 160.314,93.7662 156.5,93.5C 155.833,93.1667 155.167,92.8333 154.5,92.5C 154.552,90.0971 154.219,87.7638 153.5,85.5C 156.092,87.0361 157.092,89.3695 156.5,92.5C 161.413,91.8949 166.413,91.8949 171.5,92.5C 171.5,91.1667 171.5,89.8333 171.5,88.5C 172.688,87.3157 173.855,87.3157 175,88.5C 179.498,83.1867 180.998,77.1867 179.5,70.5C 179.735,69.9033 180.235,69.5699 181,69.5C 184.692,72.4131 186.026,71.4131 185,66.5C 184.667,66.8333 184.333,67.1667 184,67.5C 182.377,63.9335 179.544,62.2669 175.5,62.5C 175.488,59.858 176.821,58.5246 179.5,58.5 Z"/></g>
<g><path style="opacity:1" fill="#4b938f" d="M 243.5,95.5 C 247.549,96.7419 251.549,98.0753 255.5,99.5C 266.5,100.167 277.5,100.833 288.5,101.5C 288.863,102.183 289.196,102.85 289.5,103.5C 278.193,102.267 266.86,102.267 255.5,103.5C 255.67,104.822 255.337,105.989 254.5,107C 252.19,107.497 249.857,107.663 247.5,107.5C 245.246,106.746 243.413,105.413 242,103.5C 239.566,102.678 237.066,102.344 234.5,102.5C 234.167,102.5 233.833,102.5 233.5,102.5C 232.833,100.833 232.167,99.1667 231.5,97.5C 232.496,97.5858 233.329,97.2524 234,96.5C 235.351,98.019 236.851,99.3523 238.5,100.5C 239.967,99.3047 241.467,99.3047 243,100.5C 244.225,100.138 245.391,99.6377 246.5,99C 244.937,98.2411 243.937,97.0744 243.5,95.5 Z"/></g>
<g><path style="opacity:0.51" fill="#678e90" d="M 37.5,75.5 C 38.0431,75.56 38.3764,75.8933 38.5,76.5C 37.0755,79.0536 35.9088,81.7202 35,84.5C 32.6667,86.1667 30.6667,88.1667 29,90.5C 26.9961,94.5866 24.9961,98.5866 23,102.5C 20.0388,110.714 21.5388,117.714 27.5,123.5C 29.8104,128.361 31.9771,133.361 34,138.5C 35,139.167 36,139.833 37,140.5C 38.8248,150.415 39.6581,160.415 39.5,170.5C 38.5,171.833 37.5,171.833 36.5,170.5C 38.6914,153.568 34.5248,138.568 24,125.5C 21.6123,121.392 19.779,117.059 18.5,112.5C 22.4851,98.8609 28.8185,86.5276 37.5,75.5 Z"/></g>
<g><path style="opacity:1" fill="#38868a" d="M 101.5,76.5 C 101.08,78.0936 100.414,79.5936 99.5,81C 101.445,84.2228 102.445,87.7228 102.5,91.5C 101.733,92.172 101.066,93.0053 100.5,94C 104.801,95.7854 106.801,98.9521 106.5,103.5C 105.167,103.5 103.833,103.5 102.5,103.5C 97.5356,101.068 94.8689,97.0675 94.5,91.5C 93.325,91.719 92.325,91.3857 91.5,90.5C 88.873,86.1486 88.0397,81.4819 89,76.5C 89.6708,75.7476 90.5041,75.4142 91.5,75.5C 93.0481,75.8212 93.7148,76.8212 93.5,78.5C 94.552,78.6495 95.552,78.4828 96.5,78C 97.5907,73.0779 99.2574,72.5779 101.5,76.5 Z"/></g>
<g><path style="opacity:1" fill="#40888f" d="M 102.5,91.5 C 103.496,91.4142 104.329,91.7476 105,92.5C 106.44,95.0459 107.606,97.7126 108.5,100.5C 109.325,101.386 110.325,101.719 111.5,101.5C 111.666,108.841 111.5,116.174 111,123.5C 110.02,121.941 109.187,120.274 108.5,118.5C 107.355,119.776 107.355,121.109 108.5,122.5C 107.372,123.262 106.205,123.929 105,124.5C 104.79,126.058 104.29,127.391 103.5,128.5C 103.74,120.125 103.407,111.792 102.5,103.5C 103.833,103.5 105.167,103.5 106.5,103.5C 106.801,98.9521 104.801,95.7854 100.5,94C 101.066,93.0053 101.733,92.172 102.5,91.5 Z"/></g>
<g><path style="opacity:0.976" fill="#537b7b" d="M 77.5,80.5 C 73.6796,84.9756 71.3463,90.1423 70.5,96C 71.3995,102.962 74.0661,109.129 78.5,114.5C 77.7321,115.263 77.2321,116.263 77,117.5C 74.5659,113.618 71.8993,109.952 69,106.5C 68.2286,103.654 67.3953,100.82 66.5,98C 66.7885,95.813 67.1218,93.6463 67.5,91.5C 69.6704,88.6134 71.337,85.2801 72.5,81.5C 73.9653,79.5764 75.632,79.2431 77.5,80.5 Z"/></g>
<g><path style="opacity:0.949" fill="#578286" d="M 95.5,64.5 C 96.5983,65.6009 96.765,66.9343 96,68.5C 93.8584,70.4319 92.3584,72.7653 91.5,75.5C 90.5041,75.4142 89.6708,75.7476 89,76.5C 88.0397,81.4819 88.873,86.1486 91.5,90.5C 92.325,91.3857 93.325,91.719 94.5,91.5C 94.8689,97.0675 97.5356,101.068 102.5,103.5C 103.407,111.792 103.74,120.125 103.5,128.5C 103.768,130.099 103.434,131.432 102.5,132.5C 102.011,131.005 101.345,129.671 100.5,128.5C 100.666,122.158 100.5,115.825 100,109.5C 96.7483,101.732 92.7483,94.3984 88,87.5C 85.7896,82.643 86.123,77.9763 89,73.5C 91.1761,70.4706 93.3427,67.4706 95.5,64.5 Z"/></g>
<g><path style="opacity:1" fill="#419091" d="M 289.5,103.5 C 289.489,105.547 289.156,107.547 288.5,109.5C 289.698,112.006 290.698,114.173 291.5,116C 289.934,116.3 288.601,115.8 287.5,114.5C 285.597,111.93 283.263,109.596 280.5,107.5C 269.376,110.155 258.376,110.155 247.5,107.5C 249.857,107.663 252.19,107.497 254.5,107C 255.337,105.989 255.67,104.822 255.5,103.5C 266.86,102.267 278.193,102.267 289.5,103.5 Z"/></g>
<g><path style="opacity:1" fill="#498586" d="M 58.5,51.5 C 59.2891,51.7828 59.9558,52.2828 60.5,53C 58.3498,54.1923 57.6832,55.6923 58.5,57.5C 55.4585,58.3754 53.6252,60.3754 53,63.5C 49.3515,65.9395 46.1848,68.9395 43.5,72.5C 43.8333,73.1667 44.1667,73.8333 44.5,74.5C 43.0499,75.8498 42.3832,77.5165 42.5,79.5C 41.5,79.5 40.5,79.5 39.5,79.5C 37.0955,83.2549 35.0955,87.2549 33.5,91.5C 31.6183,93.834 29.9517,96.334 28.5,99C 29.3366,100.011 29.67,101.178 29.5,102.5C 28.5,102.5 27.5,102.5 26.5,102.5C 26.3219,105.322 25.6552,107.989 24.5,110.5C 26.2743,114.601 27.2743,118.934 27.5,123.5C 21.5388,117.714 20.0388,110.714 23,102.5C 24.9961,98.5866 26.9961,94.5866 29,90.5C 30.6667,88.1667 32.6667,86.1667 35,84.5C 35.9088,81.7202 37.0755,79.0536 38.5,76.5C 38.3764,75.8933 38.0431,75.56 37.5,75.5C 43.7837,66.8823 50.7837,58.8823 58.5,51.5 Z"/></g>
<g><path style="opacity:0.918" fill="#557176" d="M 316.5,99.5 C 324.729,115.735 329.563,133.068 331,151.5C 331.773,163.866 331.607,176.2 330.5,188.5C 329.478,184.532 328.812,180.365 328.5,176C 329.692,168.006 329.692,160.173 328.5,152.5C 327.772,148.017 326.772,143.684 325.5,139.5C 324.293,132.614 323.126,125.614 322,118.5C 320.918,116.382 319.751,114.382 318.5,112.5C 318.434,109.336 317.434,106.502 315.5,104C 316.148,102.56 316.481,101.06 316.5,99.5 Z"/></g>
<g><path style="opacity:1" fill="#4d9695" d="M 192.5,113.5 C 202.624,114.339 212.624,115.673 222.5,117.5C 222.833,117.5 223.167,117.5 223.5,117.5C 223.777,120.448 223.444,123.281 222.5,126C 219.485,126.201 216.485,125.868 213.5,125C 212.299,124.097 211.465,122.931 211,121.5C 210.395,123.481 209.395,123.815 208,122.5C 207.517,123.448 207.351,124.448 207.5,125.5C 191.583,123.302 175.583,122.969 159.5,124.5C 156.297,124.982 153.631,126.315 151.5,128.5C 149.194,128.993 146.861,129.326 144.5,129.5C 143.596,128.791 143.263,127.791 143.5,126.5C 145.099,126.768 146.432,126.434 147.5,125.5C 151.123,124.253 154.789,122.92 158.5,121.5C 160.768,122.544 163.101,122.711 165.5,122C 163.378,120.919 161.378,120.252 159.5,120C 162.813,116.341 166.813,115.508 171.5,117.5C 173.926,117.596 176.093,116.93 178,115.5C 180.783,115.734 183.95,115.734 187.5,115.5C 188.833,115.667 190.167,115.833 191.5,116C 193.78,118.904 196.446,119.571 199.5,118C 196.813,116.951 194.48,115.451 192.5,113.5 Z"/></g>
<g><path style="opacity:0.886" fill="#557978" d="M 196.5,110.5 C 205.677,111.292 214.343,113.626 222.5,117.5C 212.624,115.673 202.624,114.339 192.5,113.5C 191.833,113.5 191.5,113.167 191.5,112.5C 193.167,111.833 194.833,111.167 196.5,110.5 Z"/></g>
<g><path style="opacity:0.871" fill="#698684" d="M 193.5,110.5 C 177.42,108.992 161.92,110.992 147,116.5C 146.228,116.355 145.561,116.022 145,115.5C 142.228,117.704 139.062,119.037 135.5,119.5C 131.686,122.241 130.686,125.741 132.5,130C 135.686,129.886 138.686,130.053 141.5,130.5C 138.307,131.397 135.141,132.397 132,133.5C 130.893,133.415 129.893,133.081 129,132.5C 127.667,125.83 129.501,120.33 134.5,116C 153.892,109.279 173.559,107.445 193.5,110.5 Z"/></g>
<g><path style="opacity:1" fill="#4c9e98" d="M 191.5,112.5 C 191.5,113.167 191.833,113.5 192.5,113.5C 194.48,115.451 196.813,116.951 199.5,118C 196.446,119.571 193.78,118.904 191.5,116C 190.167,115.833 188.833,115.667 187.5,115.5C 183.95,115.734 180.783,115.734 178,115.5C 176.093,116.93 173.926,117.596 171.5,117.5C 166.813,115.508 162.813,116.341 159.5,120C 161.378,120.252 163.378,120.919 165.5,122C 163.101,122.711 160.768,122.544 158.5,121.5C 154.789,122.92 151.123,124.253 147.5,125.5C 143.323,126.158 141.823,124.492 143,120.5C 146.89,118.865 150.724,117.032 154.5,115C 166.707,112.751 179.04,111.917 191.5,112.5 Z"/></g>
<g><path style="opacity:1" fill="#438e8e" d="M 67.5,91.5 C 67.1218,93.6463 66.7885,95.813 66.5,98C 67.3953,100.82 68.2286,103.654 69,106.5C 71.8993,109.952 74.5659,113.618 77,117.5C 77.2321,116.263 77.7321,115.263 78.5,114.5C 78.5,114.833 78.5,115.167 78.5,115.5C 78.5,116.5 78.5,117.5 78.5,118.5C 77.0267,119.071 75.36,119.071 73.5,118.5C 74.2301,126.547 73.8968,134.547 72.5,142.5C 71.4462,135.506 71.2795,128.506 72,121.5C 71.2904,120.027 70.1238,119.36 68.5,119.5C 67.8711,114.204 64.8711,111.204 59.5,110.5C 57.9287,107.077 56.0954,103.743 54,100.5C 53.3092,96.9787 53.8092,93.6454 55.5,90.5C 57.0174,90.4894 58.1841,89.8228 59,88.5C 59.5864,85.9807 60.7531,83.9807 62.5,82.5C 63.9362,80.6815 65.6029,80.3482 67.5,81.5C 68.4485,84.7947 68.4485,88.128 67.5,91.5 Z"/></g>
<g><path style="opacity:1" fill="#47958f" d="M 33.5,91.5 C 35.0481,91.8212 35.7148,92.8212 35.5,94.5C 31.9142,99.9972 30.7475,105.997 32,112.5C 33.9403,116.943 34.9403,121.61 35,126.5C 44.0564,135.302 47.0564,145.636 44,157.5C 44.9147,158.328 45.5814,159.328 46,160.5C 46.4986,164.152 46.6653,167.818 46.5,171.5C 44.9201,169.283 43.9201,166.616 43.5,163.5C 42.9053,157.409 41.9053,151.409 40.5,145.5C 40.2822,153.764 40.2822,162.097 40.5,170.5C 40.1667,170.5 39.8333,170.5 39.5,170.5C 39.6581,160.415 38.8248,150.415 37,140.5C 36,139.833 35,139.167 34,138.5C 31.9771,133.361 29.8104,128.361 27.5,123.5C 27.2743,118.934 26.2743,114.601 24.5,110.5C 25.6552,107.989 26.3219,105.322 26.5,102.5C 27.5,102.5 28.5,102.5 29.5,102.5C 29.67,101.178 29.3366,100.011 28.5,99C 29.9517,96.334 31.6183,93.834 33.5,91.5 Z"/></g>
<g><path style="opacity:1" fill="#589a94" d="M 193.5,110.5 C 194.5,110.5 195.5,110.5 196.5,110.5C 194.833,111.167 193.167,111.833 191.5,112.5C 179.04,111.917 166.707,112.751 154.5,115C 150.724,117.032 146.89,118.865 143,120.5C 141.823,124.492 143.323,126.158 147.5,125.5C 146.432,126.434 145.099,126.768 143.5,126.5C 143.263,127.791 143.596,128.791 144.5,129.5C 143.791,130.404 142.791,130.737 141.5,130.5C 138.686,130.053 135.686,129.886 132.5,130C 130.686,125.741 131.686,122.241 135.5,119.5C 139.062,119.037 142.228,117.704 145,115.5C 145.561,116.022 146.228,116.355 147,116.5C 161.92,110.992 177.42,108.992 193.5,110.5 Z"/></g>
<g><path style="opacity:1" fill="#488d90" d="M 223.5,117.5 C 234.98,122.738 245.98,128.738 256.5,135.5C 265.44,137.013 274.44,138.013 283.5,138.5C 274.861,139.93 265.861,140.764 256.5,141C 255.809,142.067 255.309,143.234 255,144.5C 254.667,144.167 254.333,143.833 254,143.5C 252.845,144.338 251.678,145.338 250.5,146.5C 247.208,144.542 244.208,142.209 241.5,139.5C 237.102,137.646 232.768,135.48 228.5,133C 225.086,132.703 221.753,132.036 218.5,131C 214.752,129.011 211.086,127.178 207.5,125.5C 207.351,124.448 207.517,123.448 208,122.5C 209.395,123.815 210.395,123.481 211,121.5C 211.465,122.931 212.299,124.097 213.5,125C 216.485,125.868 219.485,126.201 222.5,126C 223.444,123.281 223.777,120.448 223.5,117.5 Z"/></g>
<g><path style="opacity:1" fill="#418992" d="M 289.5,103.5 C 290.5,103.5 291.5,103.5 292.5,103.5C 292.343,104.873 292.51,106.207 293,107.5C 293.667,106.167 294.333,106.167 295,107.5C 296.695,110.303 298.028,113.969 299,118.5C 300.353,119.685 301.52,121.019 302.5,122.5C 303.183,122.137 303.85,121.804 304.5,121.5C 304.5,121.833 304.5,122.167 304.5,122.5C 304.506,127.215 305.006,131.882 306,136.5C 307.331,140.826 308.498,145.16 309.5,149.5C 311.179,149.285 312.179,149.952 312.5,151.5C 311.833,153.5 310.5,154.833 308.5,155.5C 306.771,154.047 305.771,152.047 305.5,149.5C 304.575,148.438 303.575,148.438 302.5,149.5C 300.052,138.8 296.552,128.467 292,118.5C 290.933,117.809 289.766,117.309 288.5,117C 287.748,116.329 287.414,115.496 287.5,114.5C 288.601,115.8 289.934,116.3 291.5,116C 290.698,114.173 289.698,112.006 288.5,109.5C 289.156,107.547 289.489,105.547 289.5,103.5 Z"/></g>
<g><path style="opacity:0.837" fill="#609091" d="M 59.5,110.5 C 64.8711,111.204 67.8711,114.204 68.5,119.5C 70.1238,119.36 71.2904,120.027 72,121.5C 71.2795,128.506 71.4462,135.506 72.5,142.5C 72.3338,148.842 72.5005,155.175 73,161.5C 73.2321,162.737 73.7321,163.737 74.5,164.5C 74.648,172.389 75.9813,180.055 78.5,187.5C 77.8826,187.611 77.3826,187.944 77,188.5C 76.6295,184.967 75.4628,181.967 73.5,179.5C 69.2705,161.477 67.4372,143.143 68,124.5C 65.3382,119.684 62.5049,115.018 59.5,110.5 Z"/></g>
<g><path style="opacity:0.935" fill="#628e90" d="M 207.5,125.5 C 211.086,127.178 214.752,129.011 218.5,131C 221.753,132.036 225.086,132.703 228.5,133C 232.768,135.48 237.102,137.646 241.5,139.5C 244.208,142.209 247.208,144.542 250.5,146.5C 250.918,147.222 251.584,147.722 252.5,148C 259.883,148.799 267.217,148.632 274.5,147.5C 277.109,148.23 279.776,148.73 282.5,149C 282.95,151.533 283.95,153.7 285.5,155.5C 285.573,157.027 284.906,158.027 283.5,158.5C 281.981,155.979 280.314,153.479 278.5,151C 269.511,151.273 260.511,151.273 251.5,151C 221.661,128.264 188.328,120.764 151.5,128.5C 153.631,126.315 156.297,124.982 159.5,124.5C 175.583,122.969 191.583,123.302 207.5,125.5 Z"/></g>
<g><path style="opacity:0.925" fill="#618a8f" d="M 234.5,102.5 C 237.066,102.344 239.566,102.678 242,103.5C 243.413,105.413 245.246,106.746 247.5,107.5C 258.376,110.155 269.376,110.155 280.5,107.5C 283.263,109.596 285.597,111.93 287.5,114.5C 287.414,115.496 287.748,116.329 288.5,117C 289.766,117.309 290.933,117.809 292,118.5C 296.552,128.467 300.052,138.8 302.5,149.5C 302.194,155.249 303.861,160.249 307.5,164.5C 306.77,171.332 307.104,178.165 308.5,185C 308.37,186.059 307.87,186.892 307,187.5C 306.747,184.21 305.747,181.21 304,178.5C 303.23,177.402 302.397,177.402 301.5,178.5C 301.643,171.541 299.809,165.207 296,159.5C 295.796,156.203 294.963,153.203 293.5,150.5C 290.512,147.433 288.345,143.766 287,139.5C 285.989,138.663 284.822,138.33 283.5,138.5C 274.44,138.013 265.44,137.013 256.5,135.5C 266.839,135.334 277.172,135.5 287.5,136C 291.208,139.91 294.042,144.41 296,149.5C 298.732,156.363 301.066,163.363 303,170.5C 301.373,149.752 294.54,130.919 282.5,114C 275.23,112.205 267.897,112.038 260.5,113.5C 250.808,111.98 242.141,108.313 234.5,102.5 Z"/></g>
<g><path style="opacity:1" fill="#3f8790" d="M 318.5,112.5 C 319.751,114.382 320.918,116.382 322,118.5C 323.126,125.614 324.293,132.614 325.5,139.5C 325.782,144.522 325.949,149.522 326,154.5C 324.989,155.337 323.822,155.67 322.5,155.5C 322.292,153.08 322.626,150.747 323.5,148.5C 322.695,146.528 321.361,145.028 319.5,144C 320.336,142.757 320.003,141.59 318.5,140.5C 318.167,141.333 317.833,142.167 317.5,143C 321.218,150.101 322.218,157.601 320.5,165.5C 319.14,164.82 317.807,164.153 316.5,163.5C 315.232,161.095 314.565,158.428 314.5,155.5C 316.652,154.923 316.985,153.756 315.5,152C 316.167,151.667 316.833,151.333 317.5,151C 316.54,147.27 316.207,143.437 316.5,139.5C 317.239,139.631 317.906,139.464 318.5,139C 317.904,134.921 316.904,130.921 315.5,127C 316.342,123.827 318.175,122.994 321,124.5C 321.167,123.833 321.333,123.167 321.5,122.5C 319.478,119.476 318.478,116.143 318.5,112.5 Z"/></g>
<g><path style="opacity:1" fill="#538987" d="M 42.5,93.5 C 39.2701,99.2895 36.6034,105.29 34.5,111.5C 35.039,114.248 35.8723,116.915 37,119.5C 40.3611,124.7 43.5278,130.033 46.5,135.5C 45.0265,137.961 45.1932,140.294 47,142.5C 47.4998,153.161 47.6665,163.828 47.5,174.5C 46.596,173.791 46.2627,172.791 46.5,171.5C 46.6653,167.818 46.4986,164.152 46,160.5C 45.5814,159.328 44.9147,158.328 44,157.5C 47.0564,145.636 44.0564,135.302 35,126.5C 34.9403,121.61 33.9403,116.943 32,112.5C 30.7475,105.997 31.9142,99.9972 35.5,94.5C 37.4197,91.102 39.753,90.7687 42.5,93.5 Z"/></g>
<g><path style="opacity:1" fill="#4d8080" d="M 104.5,75.5 C 104.5,75.8333 104.5,76.1667 104.5,76.5C 103.431,79.408 103.264,82.408 104,85.5C 108.189,91.8773 111.855,98.544 115,105.5C 115.333,116.833 115.667,128.167 116,139.5C 116.462,146.309 117.629,152.975 119.5,159.5C 118.279,160.028 117.113,160.695 116,161.5C 115.333,157.5 114.667,153.5 114,149.5C 113.492,147.096 112.325,146.429 110.5,147.5C 109.125,144.161 109.459,140.994 111.5,138C 110.931,134.292 109.764,130.792 108,127.5C 107.333,128.167 106.667,128.833 106,129.5C 105.628,133.757 104.795,137.924 103.5,142C 103.788,144.187 104.122,146.354 104.5,148.5C 103.778,148.082 103.278,147.416 103,146.5C 102.501,141.845 102.334,137.179 102.5,132.5C 103.434,131.432 103.768,130.099 103.5,128.5C 104.29,127.391 104.79,126.058 105,124.5C 106.205,123.929 107.372,123.262 108.5,122.5C 107.355,121.109 107.355,119.776 108.5,118.5C 109.187,120.274 110.02,121.941 111,123.5C 111.5,116.174 111.666,108.841 111.5,101.5C 110.325,101.719 109.325,101.386 108.5,100.5C 107.606,97.7126 106.44,95.0459 105,92.5C 104.329,91.7476 103.496,91.4142 102.5,91.5C 102.445,87.7228 101.445,84.2228 99.5,81C 100.414,79.5936 101.08,78.0936 101.5,76.5C 102.209,75.596 103.209,75.2627 104.5,75.5 Z"/></g>
<g><path style="opacity:1" fill="#48938e" d="M 78.5,118.5 C 79.1299,133.456 79.9633,148.456 81,163.5C 82.6414,168.632 83.6414,173.965 84,179.5C 85.6542,183.133 87.1542,186.8 88.5,190.5C 88.5654,190.938 88.3988,191.272 88,191.5C 86.9509,189.382 85.4509,187.716 83.5,186.5C 83.9529,183.348 82.9529,180.848 80.5,179C 81.1078,177.769 81.4411,176.436 81.5,175C 80.5376,169.855 79.7043,164.688 79,159.5C 78.7547,157.337 77.7547,155.67 76,154.5C 75.6667,151.833 75.3333,149.167 75,146.5C 73.3343,152.478 73.1676,158.478 74.5,164.5C 73.7321,163.737 73.2321,162.737 73,161.5C 72.5005,155.175 72.3338,148.842 72.5,142.5C 73.8968,134.547 74.2301,126.547 73.5,118.5C 75.36,119.071 77.0267,119.071 78.5,118.5 Z"/></g>
<g><path style="opacity:1" fill="#418992" d="M 283.5,138.5 C 284.822,138.33 285.989,138.663 287,139.5C 288.345,143.766 290.512,147.433 293.5,150.5C 293.785,152.288 293.452,153.955 292.5,155.5C 291.459,153.009 290.626,153.009 290,155.5C 289.667,153.5 289.333,151.5 289,149.5C 288.577,148.044 287.744,147.544 286.5,148C 287.108,149.231 287.441,150.564 287.5,152C 287.392,153.681 286.725,154.848 285.5,155.5C 283.95,153.7 282.95,151.533 282.5,149C 279.776,148.73 277.109,148.23 274.5,147.5C 267.217,148.632 259.883,148.799 252.5,148C 251.584,147.722 250.918,147.222 250.5,146.5C 251.678,145.338 252.845,144.338 254,143.5C 254.333,143.833 254.667,144.167 255,144.5C 255.309,143.234 255.809,142.067 256.5,141C 265.861,140.764 274.861,139.93 283.5,138.5 Z"/></g>
<g><path style="opacity:1" fill="#5d878c" d="M 309.5,121.5 C 310.735,121.721 311.735,122.388 312.5,123.5C 314.803,128.543 316.136,133.876 316.5,139.5C 316.207,143.437 316.54,147.27 317.5,151C 316.833,151.333 316.167,151.667 315.5,152C 316.985,153.756 316.652,154.923 314.5,155.5C 313.833,154.167 313.167,152.833 312.5,151.5C 312.179,149.952 311.179,149.285 309.5,149.5C 308.498,145.16 307.331,140.826 306,136.5C 305.006,131.882 304.506,127.215 304.5,122.5C 308.718,129.633 311.884,137.3 314,145.5C 313.854,137.269 312.354,129.269 309.5,121.5 Z"/></g>
<g><path style="opacity:0.853" fill="#5e807f" d="M 78.5,115.5 C 80.7458,117.649 82.2458,120.316 83,123.5C 81.1498,146.016 83.6498,168.016 90.5,189.5C 89.8333,189.833 89.1667,190.167 88.5,190.5C 87.1542,186.8 85.6542,183.133 84,179.5C 83.6414,173.965 82.6414,168.632 81,163.5C 79.9633,148.456 79.1299,133.456 78.5,118.5C 78.5,117.5 78.5,116.5 78.5,115.5 Z"/></g>
<g><path style="opacity:1" fill="#347d8a" d="M 325.5,139.5 C 326.772,143.684 327.772,148.017 328.5,152.5C 328.665,155.85 328.498,159.183 328,162.5C 327.667,161.167 327.333,159.833 327,158.5C 326.371,161.311 325.871,164.144 325.5,167C 325.892,169.968 326.226,172.968 326.5,176C 325.687,182.419 325.187,188.919 325,195.5C 322.977,193.231 322.144,190.564 322.5,187.5C 323.812,182.985 323.812,178.318 322.5,173.5C 321.914,173.709 321.414,174.043 321,174.5C 318.804,171.975 316.638,169.475 314.5,167C 315.305,165.887 315.972,164.721 316.5,163.5C 317.807,164.153 319.14,164.82 320.5,165.5C 322.218,157.601 321.218,150.101 317.5,143C 317.833,142.167 318.167,141.333 318.5,140.5C 320.003,141.59 320.336,142.757 319.5,144C 321.361,145.028 322.695,146.528 323.5,148.5C 322.626,150.747 322.292,153.08 322.5,155.5C 323.822,155.67 324.989,155.337 326,154.5C 325.949,149.522 325.782,144.522 325.5,139.5 Z"/></g>
<g><path style="opacity:1" fill="#47928f" d="M 119.5,159.5 C 119.5,159.833 119.5,160.167 119.5,160.5C 119.334,165.179 119.501,169.845 120,174.5C 122.167,178.833 124.333,183.167 126.5,187.5C 125.272,189.321 123.606,190.321 121.5,190.5C 120.26,184.697 117.427,179.697 113,175.5C 112.667,172.167 112.333,168.833 112,165.5C 109.484,162.466 107.484,159.132 106,155.5C 105.023,153.26 104.523,150.927 104.5,148.5C 104.122,146.354 103.788,144.187 103.5,142C 104.795,137.924 105.628,133.757 106,129.5C 106.667,128.833 107.333,128.167 108,127.5C 109.764,130.792 110.931,134.292 111.5,138C 109.459,140.994 109.125,144.161 110.5,147.5C 112.325,146.429 113.492,147.096 114,149.5C 114.667,153.5 115.333,157.5 116,161.5C 117.113,160.695 118.279,160.028 119.5,159.5 Z"/></g>
<g><path style="opacity:1" fill="#44828f" d="M 177.5,146.5 C 179.173,149.167 181.507,151.167 184.5,152.5C 187.44,157.117 187.107,161.45 183.5,165.5C 182.818,164.757 182.151,164.091 181.5,163.5C 178.913,163.12 178.246,161.953 179.5,160C 177.93,156.595 176.597,153.095 175.5,149.5C 172.894,148.348 170.227,148.182 167.5,149C 170.058,150.38 170.058,151.88 167.5,153.5C 167.624,154.107 167.957,154.44 168.5,154.5C 167.85,156.435 167.517,158.435 167.5,160.5C 167.768,163.119 167.435,165.619 166.5,168C 163.376,169.087 161.043,168.253 159.5,165.5C 159.556,164.263 160.056,163.263 161,162.5C 161.667,163.833 162.333,163.833 163,162.5C 163.167,161.333 163.333,160.167 163.5,159C 162.477,156.132 162.477,153.298 163.5,150.5C 163.058,149.261 162.391,148.261 161.5,147.5C 167.026,147.821 172.36,147.488 177.5,146.5 Z"/></g>
<g><path style="opacity:1" fill="#457f8e" d="M 293.5,150.5 C 294.963,153.203 295.796,156.203 296,159.5C 299.809,165.207 301.643,171.541 301.5,178.5C 301.5,178.833 301.5,179.167 301.5,179.5C 300.732,178.737 300.232,177.737 300,176.5C 298.29,179.423 298.123,182.423 299.5,185.5C 298.68,187.111 297.346,187.778 295.5,187.5C 296.395,203.243 295.729,218.909 293.5,234.5C 293.5,237.5 293.5,240.5 293.5,243.5C 292.5,244.167 291.5,244.833 290.5,245.5C 297.477,215.715 295.144,186.715 283.5,158.5C 284.906,158.027 285.573,157.027 285.5,155.5C 286.725,154.848 287.392,153.681 287.5,152C 287.441,150.564 287.108,149.231 286.5,148C 287.744,147.544 288.577,148.044 289,149.5C 289.333,151.5 289.667,153.5 290,155.5C 290.626,153.009 291.459,153.009 292.5,155.5C 293.452,153.955 293.785,152.288 293.5,150.5 Z"/></g>
<g><path style="opacity:1" fill="#589e91" d="M 10.5,156.5 C 10.5,156.167 10.5,155.833 10.5,155.5C 14.7935,154.536 17.9601,155.869 20,159.5C 20.6667,163.5 20.6667,167.5 20,171.5C 18.7308,172.905 18.2308,174.571 18.5,176.5C 14.5546,177.427 11.8879,176.094 10.5,172.5C 11.8061,167.037 11.8061,161.704 10.5,156.5 Z"/></g>
<g><path style="opacity:1" fill="#4a9b95" d="M 83.5,186.5 C 81.9345,185.939 80.6011,186.606 79.5,188.5C 78.8333,188.5 78.5,188.167 78.5,187.5C 75.9813,180.055 74.648,172.389 74.5,164.5C 73.1676,158.478 73.3343,152.478 75,146.5C 75.3333,149.167 75.6667,151.833 76,154.5C 77.7547,155.67 78.7547,157.337 79,159.5C 79.7043,164.688 80.5376,169.855 81.5,175C 81.4411,176.436 81.1078,177.769 80.5,179C 82.9529,180.848 83.9529,183.348 83.5,186.5 Z"/></g>
<g><path style="opacity:0.89" fill="#608482" d="M 208.5,218.5 C 208.5,216.833 208.5,215.167 208.5,213.5C 210.652,209.812 211.986,205.812 212.5,201.5C 214.673,198.932 217.006,196.599 219.5,194.5C 220.309,192.708 220.809,190.708 221,188.5C 221.333,189.167 221.667,189.833 222,190.5C 222.181,186.956 223.348,183.79 225.5,181C 227.865,174.694 229.531,168.194 230.5,161.5C 230.336,155.808 227.67,154.141 222.5,156.5C 220.281,161.237 219.114,166.237 219,171.5C 216.096,178.928 213.263,186.428 210.5,194C 210.167,194.5 209.833,195 209.5,195.5C 208.818,194.757 208.151,194.091 207.5,193.5C 214.295,180.658 218.462,166.991 220,152.5C 221.429,149.644 223.263,149.144 225.5,151C 234.126,156.672 235.96,164.172 231,173.5C 226.638,190.225 219.138,205.225 208.5,218.5 Z"/></g>
<g><path style="opacity:1" fill="#498291" d="M 181.5,163.5 C 181.393,167.098 180.726,170.598 179.5,174C 180.377,175.867 181.877,177.034 184,177.5C 184.893,180.433 185.393,183.433 185.5,186.5C 184.463,190.457 183.796,194.457 183.5,198.5C 181.5,198.5 179.5,198.5 177.5,198.5C 177.354,194.481 177.021,190.481 176.5,186.5C 177.824,187.85 178.824,187.683 179.5,186C 178.852,184.56 178.519,183.06 178.5,181.5C 177.5,181.5 176.5,181.5 175.5,181.5C 175.587,178.439 176.587,175.773 178.5,173.5C 178.333,172.5 178.167,171.5 178,170.5C 176.451,173.003 174.784,173.003 173,170.5C 171.301,171.406 169.467,171.739 167.5,171.5C 167.263,170.209 167.596,169.209 168.5,168.5C 173.167,167.661 175.5,164.828 175.5,160C 175.372,155.373 173.039,153.539 168.5,154.5C 167.957,154.44 167.624,154.107 167.5,153.5C 170.058,151.88 170.058,150.38 167.5,149C 170.227,148.182 172.894,148.348 175.5,149.5C 176.597,153.095 177.93,156.595 179.5,160C 178.246,161.953 178.913,163.12 181.5,163.5 Z"/></g>
<g><path style="opacity:0.98" fill="#5d7e89" d="M 175.5,144.5 C 184.542,145.884 188.875,151.218 188.5,160.5C 188.787,165.591 187.12,169.925 183.5,173.5C 185.774,175.713 187.274,178.379 188,181.5C 188.667,187.833 188.667,194.167 188,200.5C 183.933,203.099 179.933,203.099 176,200.5C 175.501,195.177 175.334,189.844 175.5,184.5C 174.167,184.5 172.833,184.5 171.5,184.5C 171.5,183.5 171.5,182.5 171.5,181.5C 174.833,181.5 176.5,183.167 176.5,186.5C 177.021,190.481 177.354,194.481 177.5,198.5C 179.5,198.5 181.5,198.5 183.5,198.5C 183.796,194.457 184.463,190.457 185.5,186.5C 185.393,183.433 184.893,180.433 184,177.5C 181.877,177.034 180.377,175.867 179.5,174C 180.726,170.598 181.393,167.098 181.5,163.5C 182.151,164.091 182.818,164.757 183.5,165.5C 187.107,161.45 187.44,157.117 184.5,152.5C 181.507,151.167 179.173,149.167 177.5,146.5C 175.801,146.66 174.134,146.494 172.5,146C 173.737,145.768 174.737,145.268 175.5,144.5 Z"/></g>
<g><path style="opacity:1" fill="#307c8d" d="M 312.5,151.5 C 313.167,152.833 313.833,154.167 314.5,155.5C 314.565,158.428 315.232,161.095 316.5,163.5C 315.972,164.721 315.305,165.887 314.5,167C 316.638,169.475 318.804,171.975 321,174.5C 321.414,174.043 321.914,173.709 322.5,173.5C 323.812,178.318 323.812,182.985 322.5,187.5C 318.838,188.363 316.672,187.03 316,183.5C 315.568,186.072 314.068,187.406 311.5,187.5C 311.18,183.472 311.18,179.472 311.5,175.5C 311.192,174.692 310.692,174.025 310,173.5C 309.576,167.485 309.076,161.485 308.5,155.5C 310.5,154.833 311.833,153.5 312.5,151.5 Z"/></g>
<g><path style="opacity:0.976" fill="#508e8a" d="M 219.5,194.5 C 219.831,190.086 220.665,185.752 222,181.5C 223.333,180.833 224.333,179.833 225,178.5C 225.983,171.8 226.816,165.3 227.5,159C 227,158.5 226.5,158 226,157.5C 222.354,162.534 220.521,168.201 220.5,174.5C 215.882,183.454 212.216,192.787 209.5,202.5C 206.27,202.561 204.437,204.228 204,207.5C 200.275,211.065 196.442,214.398 192.5,217.5C 194.913,214.426 197.413,211.426 200,208.5C 200.74,207.251 200.573,206.251 199.5,205.5C 202.559,201.772 205.226,197.772 207.5,193.5C 208.151,194.091 208.818,194.757 209.5,195.5C 209.833,195 210.167,194.5 210.5,194C 213.263,186.428 216.096,178.928 219,171.5C 219.114,166.237 220.281,161.237 222.5,156.5C 227.67,154.141 230.336,155.808 230.5,161.5C 229.531,168.194 227.865,174.694 225.5,181C 223.348,183.79 222.181,186.956 222,190.5C 221.667,189.833 221.333,189.167 221,188.5C 220.809,190.708 220.309,192.708 219.5,194.5 Z"/></g>
<g><path style="opacity:0.463" fill="#688481" d="M 10.5,156.5 C 11.8061,161.704 11.8061,167.037 10.5,172.5C 11.8879,176.094 14.5546,177.427 18.5,176.5C 18.2308,174.571 18.7308,172.905 20,171.5C 20.6667,167.5 20.6667,163.5 20,159.5C 17.9601,155.869 14.7935,154.536 10.5,155.5C 13.5298,153.022 16.8632,152.855 20.5,155C 22.9037,158.972 23.9037,163.306 23.5,168C 24.375,176.918 20.375,180.251 11.5,178C 10.5415,176.293 9.87481,174.459 9.5,172.5C 10.4017,167.209 10.735,161.876 10.5,156.5 Z"/></g>
<g><path style="opacity:1" fill="#3d788c" d="M 161.5,147.5 C 162.391,148.261 163.058,149.261 163.5,150.5C 162.477,153.298 162.477,156.132 163.5,159C 163.333,160.167 163.167,161.333 163,162.5C 162.333,163.833 161.667,163.833 161,162.5C 160.056,163.263 159.556,164.263 159.5,165.5C 161.043,168.253 163.376,169.087 166.5,168C 167.435,165.619 167.768,163.119 167.5,160.5C 168.473,162.948 168.806,165.615 168.5,168.5C 167.596,169.209 167.263,170.209 167.5,171.5C 169.467,171.739 171.301,171.406 173,170.5C 174.784,173.003 176.451,173.003 178,170.5C 178.167,171.5 178.333,172.5 178.5,173.5C 176.587,175.773 175.587,178.439 175.5,181.5C 176.5,181.5 177.5,181.5 178.5,181.5C 178.519,183.06 178.852,184.56 179.5,186C 178.824,187.683 177.824,187.85 176.5,186.5C 176.5,183.167 174.833,181.5 171.5,181.5C 171.5,182.5 171.5,183.5 171.5,184.5C 170.833,184.833 170.167,185.167 169.5,185.5C 168.504,185.586 167.671,185.252 167,184.5C 165.039,187.463 162.706,190.129 160,192.5C 159.223,187.778 159.39,183.111 160.5,178.5C 160.234,175.655 159.234,173.322 157.5,171.5C 157.302,163.466 157.635,155.466 158.5,147.5C 159.5,147.5 160.5,147.5 161.5,147.5 Z"/></g>
<g><path style="opacity:0.988" fill="#638f8f" d="M 100.5,128.5 C 101.345,129.671 102.011,131.005 102.5,132.5C 102.334,137.179 102.501,141.845 103,146.5C 103.278,147.416 103.778,148.082 104.5,148.5C 104.523,150.927 105.023,153.26 106,155.5C 107.484,159.132 109.484,162.466 112,165.5C 112.333,168.833 112.667,172.167 113,175.5C 117.427,179.697 120.26,184.697 121.5,190.5C 123.187,194.286 125.021,197.953 127,201.5C 127.74,202.749 127.573,203.749 126.5,204.5C 109.872,182.032 101.205,156.698 100.5,128.5 Z"/></g>
<g><path style="opacity:1" fill="#3f818d" d="M 308.5,155.5 C 309.076,161.485 309.576,167.485 310,173.5C 310.692,174.025 311.192,174.692 311.5,175.5C 311.18,179.472 311.18,183.472 311.5,187.5C 311.007,189.806 310.674,192.139 310.5,194.5C 308.599,194.433 306.766,194.767 305,195.5C 304.055,195.095 303.388,194.428 303,193.5C 302.667,194.167 302.333,194.833 302,195.5C 302.033,190.106 301.866,184.773 301.5,179.5C 301.5,179.167 301.5,178.833 301.5,178.5C 302.397,177.402 303.23,177.402 304,178.5C 305.747,181.21 306.747,184.21 307,187.5C 307.87,186.892 308.37,186.059 308.5,185C 307.104,178.165 306.77,171.332 307.5,164.5C 303.861,160.249 302.194,155.249 302.5,149.5C 303.575,148.438 304.575,148.438 305.5,149.5C 305.771,152.047 306.771,154.047 308.5,155.5 Z"/></g>
<g><path style="opacity:1" fill="#56a49a" d="M 46.5,171.5 C 46.2627,172.791 46.596,173.791 47.5,174.5C 47.9412,181.255 48.9412,187.922 50.5,194.5C 50.4024,196.619 49.5691,198.286 48,199.5C 46.8289,198.107 45.3289,197.273 43.5,197C 42.2054,194.199 42.2054,191.366 43.5,188.5C 39.9551,182.884 38.9551,176.884 40.5,170.5C 40.2822,162.097 40.2822,153.764 40.5,145.5C 41.9053,151.409 42.9053,157.409 43.5,163.5C 43.9201,166.616 44.9201,169.283 46.5,171.5 Z"/></g>
<g><path style="opacity:1" fill="#53a093" d="M 83.5,186.5 C 85.4509,187.716 86.9509,189.382 88,191.5C 88.3988,191.272 88.5654,190.938 88.5,190.5C 89.1667,190.167 89.8333,189.833 90.5,189.5C 90.8333,189.5 91.1667,189.5 91.5,189.5C 91.1868,192.837 92.5201,195.171 95.5,196.5C 95.7284,197.669 95.2284,199.003 94,200.5C 88.9148,199.021 85.4148,200.688 83.5,205.5C 82.8333,205.833 82.1667,206.167 81.5,206.5C 81.7692,204.571 81.2692,202.905 80,201.5C 79.5045,203.473 79.3379,205.473 79.5,207.5C 77.8333,207.5 76.1667,207.5 74.5,207.5C 76.0659,203.199 78.0659,199.032 80.5,195C 79.5769,192.959 79.2436,190.792 79.5,188.5C 80.6011,186.606 81.9345,185.939 83.5,186.5 Z"/></g>
<g><path style="opacity:0.873" fill="#728f97" d="M 175.5,144.5 C 174.737,145.268 173.737,145.768 172.5,146C 174.134,146.494 175.801,146.66 177.5,146.5C 172.36,147.488 167.026,147.821 161.5,147.5C 160.5,147.5 159.5,147.5 158.5,147.5C 157.635,155.466 157.302,163.466 157.5,171.5C 156.626,179.152 156.459,186.818 157,194.5C 157.333,192.167 157.667,189.833 158,187.5C 158.499,192.155 158.666,196.821 158.5,201.5C 161.308,201.307 163.975,200.64 166.5,199.5C 166.198,195.21 166.864,191.21 168.5,187.5C 168.666,191.846 168.499,196.179 168,200.5C 164.748,203.488 161.082,204.155 157,202.5C 155.524,184.877 154.857,167.21 155,149.5C 155.11,147.152 156.277,145.652 158.5,145C 164.157,144.501 169.824,144.334 175.5,144.5 Z"/></g>
<g><path style="opacity:1" fill="#588c88" d="M 119.5,160.5 C 126.22,177.758 135.886,193.258 148.5,207C 152.052,210.219 155.885,213.052 160,215.5C 161.187,217.044 161.52,218.711 161,220.5C 159.028,222.232 156.861,223.565 154.5,224.5C 155.299,221.57 155.632,218.57 155.5,215.5C 152.213,214.736 149.546,212.903 147.5,210C 145.211,208.752 142.877,207.585 140.5,206.5C 136.129,200.97 131.629,195.637 127,190.5C 125.626,194.99 126.959,198.323 131,200.5C 132.667,204.167 134.333,207.833 136,211.5C 137.154,212.743 138.488,213.743 140,214.5C 140.49,215.793 140.657,217.127 140.5,218.5C 142.167,218.5 143.833,218.5 145.5,218.5C 146.077,221.645 148.077,223.145 151.5,223C 152.381,223.708 153.047,224.542 153.5,225.5C 148.882,225.731 144.882,224.231 141.5,221C 135.685,216.171 130.685,210.671 126.5,204.5C 127.573,203.749 127.74,202.749 127,201.5C 125.021,197.953 123.187,194.286 121.5,190.5C 123.606,190.321 125.272,189.321 126.5,187.5C 124.333,183.167 122.167,178.833 120,174.5C 119.501,169.845 119.334,165.179 119.5,160.5 Z"/></g>
<g><path style="opacity:1" fill="#4c9b95" d="M 219.5,194.5 C 217.006,196.599 214.673,198.932 212.5,201.5C 211.986,205.812 210.652,209.812 208.5,213.5C 206.894,214.8 205.227,216.134 203.5,217.5C 202.914,217.291 202.414,216.957 202,216.5C 201.346,221.065 198.846,224.065 194.5,225.5C 192.166,223.824 191.166,221.491 191.5,218.5C 191.5,217.833 191.833,217.5 192.5,217.5C 196.442,214.398 200.275,211.065 204,207.5C 204.437,204.228 206.27,202.561 209.5,202.5C 212.216,192.787 215.882,183.454 220.5,174.5C 220.521,168.201 222.354,162.534 226,157.5C 226.5,158 227,158.5 227.5,159C 226.816,165.3 225.983,171.8 225,178.5C 224.333,179.833 223.333,180.833 222,181.5C 220.665,185.752 219.831,190.086 219.5,194.5 Z"/></g>
<g><path style="opacity:1" fill="#477f88" d="M 157.5,171.5 C 159.234,173.322 160.234,175.655 160.5,178.5C 159.39,183.111 159.223,187.778 160,192.5C 162.706,190.129 165.039,187.463 167,184.5C 167.671,185.252 168.504,185.586 169.5,185.5C 169.672,186.492 169.338,187.158 168.5,187.5C 166.864,191.21 166.198,195.21 166.5,199.5C 163.975,200.64 161.308,201.307 158.5,201.5C 158.666,196.821 158.499,192.155 158,187.5C 157.667,189.833 157.333,192.167 157,194.5C 156.459,186.818 156.626,179.152 157.5,171.5 Z"/></g>
<g><path style="opacity:1" fill="#327685" d="M 328.5,152.5 C 329.692,160.173 329.692,168.006 328.5,176C 328.812,180.365 329.478,184.532 330.5,188.5C 330.048,192.546 329.381,196.546 328.5,200.5C 327.504,200.586 326.671,200.252 326,199.5C 325.79,201.058 325.29,202.391 324.5,203.5C 323.432,202.566 322.099,202.232 320.5,202.5C 320.662,200.473 320.495,198.473 320,196.5C 316.273,195.338 312.773,196.005 309.5,198.5C 307.533,202.817 304.199,204.484 299.5,203.5C 299.799,213.773 298.299,223.773 295,233.5C 294.617,234.056 294.117,234.389 293.5,234.5C 295.729,218.909 296.395,203.243 295.5,187.5C 297.346,187.778 298.68,187.111 299.5,185.5C 298.123,182.423 298.29,179.423 300,176.5C 300.232,177.737 300.732,178.737 301.5,179.5C 301.866,184.773 302.033,190.106 302,195.5C 302.333,194.833 302.667,194.167 303,193.5C 303.388,194.428 304.055,195.095 305,195.5C 306.766,194.767 308.599,194.433 310.5,194.5C 310.674,192.139 311.007,189.806 311.5,187.5C 314.068,187.406 315.568,186.072 316,183.5C 316.672,187.03 318.838,188.363 322.5,187.5C 322.144,190.564 322.977,193.231 325,195.5C 325.187,188.919 325.687,182.419 326.5,176C 326.226,172.968 325.892,169.968 325.5,167C 325.871,164.144 326.371,161.311 327,158.5C 327.333,159.833 327.667,161.167 328,162.5C 328.498,159.183 328.665,155.85 328.5,152.5 Z"/></g>
<g><path style="opacity:1" fill="#2a7389" d="M 324.5,203.5 C 322.879,209.439 321.212,215.439 319.5,221.5C 318.711,221.217 318.044,220.717 317.5,220C 312.799,219.625 308.299,219.458 304,219.5C 301.561,224.574 299.727,229.907 298.5,235.5C 297.158,234.098 296.324,234.431 296,236.5C 295.402,241.664 294.402,246.664 293,251.5C 292.825,248.843 292.992,246.176 293.5,243.5C 293.5,240.5 293.5,237.5 293.5,234.5C 294.117,234.389 294.617,234.056 295,233.5C 298.299,223.773 299.799,213.773 299.5,203.5C 304.199,204.484 307.533,202.817 309.5,198.5C 312.773,196.005 316.273,195.338 320,196.5C 320.495,198.473 320.662,200.473 320.5,202.5C 322.099,202.232 323.432,202.566 324.5,203.5 Z"/></g>
<g><path style="opacity:1" fill="#5e8680" d="M 46.5,135.5 C 47.793,136.842 48.6264,138.509 49,140.5C 50.0289,153.83 51.0289,167.163 52,180.5C 53.6741,187.844 55.0074,195.177 56,202.5C 51.0719,204.293 46.5719,203.627 42.5,200.5C 39.1117,190.785 37.1117,180.785 36.5,170.5C 37.5,171.833 38.5,171.833 39.5,170.5C 39.8333,170.5 40.1667,170.5 40.5,170.5C 38.9551,176.884 39.9551,182.884 43.5,188.5C 42.2054,191.366 42.2054,194.199 43.5,197C 45.3289,197.273 46.8289,198.107 48,199.5C 49.5691,198.286 50.4024,196.619 50.5,194.5C 48.9412,187.922 47.9412,181.255 47.5,174.5C 47.6665,163.828 47.4998,153.161 47,142.5C 45.1932,140.294 45.0265,137.961 46.5,135.5 Z"/></g>
<g><path style="opacity:0.867" fill="#4c6570" d="M 328.5,200.5 C 325.734,213.8 321.401,226.467 315.5,238.5C 314.463,236.262 314.297,233.929 315,231.5C 315.333,231.833 315.667,232.167 316,232.5C 317.655,228.951 318.822,225.285 319.5,221.5C 321.212,215.439 322.879,209.439 324.5,203.5C 325.29,202.391 325.79,201.058 326,199.5C 326.671,200.252 327.504,200.586 328.5,200.5 Z"/></g>
<g><path style="opacity:1" fill="#53a195" d="M 262.5,228.5 C 260.218,229.39 257.885,229.556 255.5,229C 262.141,224.141 264.307,217.641 262,209.5C 261.95,207.256 261.117,205.589 259.5,204.5C 254.562,203.608 249.562,203.274 244.5,203.5C 244.5,204.833 244.5,206.167 244.5,207.5C 241.046,207.267 240.046,208.6 241.5,211.5C 241.5,211.833 241.5,212.167 241.5,212.5C 239.656,214.279 238.99,216.612 239.5,219.5C 240.973,220.123 241.973,221.79 242.5,224.5C 242.291,225.086 241.957,225.586 241.5,226C 243.779,226.473 245.779,227.473 247.5,229C 245.063,230.375 242.397,230.875 239.5,230.5C 238.099,224.865 236.765,218.865 235.5,212.5C 236.407,209.579 236.74,206.579 236.5,203.5C 239.481,203.206 240.148,201.872 238.5,199.5C 239.167,199.5 239.5,199.167 239.5,198.5C 244.311,196.592 249.311,196.092 254.5,197C 257.493,199.052 260.659,200.885 264,202.5C 266.444,205.414 267.944,208.748 268.5,212.5C 267.99,216.905 267.157,221.238 266,225.5C 265.015,226.814 263.848,227.814 262.5,228.5 Z M 241.5,212.5 C 241.5,212.167 241.5,211.833 241.5,211.5C 243.304,209.533 245.304,207.699 247.5,206C 256.594,204.428 260.428,208.261 259,217.5C 250.294,226.238 244.46,224.571 241.5,212.5 Z"/></g>
<g><path style="opacity:1" fill="#4f9c98" d="M 154.5,224.5 C 154.5,225.167 154.167,225.5 153.5,225.5C 153.047,224.542 152.381,223.708 151.5,223C 148.077,223.145 146.077,221.645 145.5,218.5C 143.833,218.5 142.167,218.5 140.5,218.5C 140.657,217.127 140.49,215.793 140,214.5C 138.488,213.743 137.154,212.743 136,211.5C 134.333,207.833 132.667,204.167 131,200.5C 126.959,198.323 125.626,194.99 127,190.5C 131.629,195.637 136.129,200.97 140.5,206.5C 142.877,207.585 145.211,208.752 147.5,210C 149.546,212.903 152.213,214.736 155.5,215.5C 155.632,218.57 155.299,221.57 154.5,224.5 Z"/></g>
<g><path style="opacity:1" fill="#5d8982" d="M 252.5,192.5 C 262.381,193.535 268.881,198.868 272,208.5C 274.551,218.712 271.384,226.379 262.5,231.5C 262.5,230.5 262.5,229.5 262.5,228.5C 263.848,227.814 265.015,226.814 266,225.5C 267.157,221.238 267.99,216.905 268.5,212.5C 267.944,208.748 266.444,205.414 264,202.5C 260.659,200.885 257.493,199.052 254.5,197C 249.311,196.092 244.311,196.592 239.5,198.5C 239.881,197.069 240.881,196.236 242.5,196C 246.773,194.97 251.106,194.303 255.5,194C 254.263,193.768 253.263,193.268 252.5,192.5 Z"/></g>
<g><path style="opacity:1" fill="#2d6d85" d="M 319.5,221.5 C 318.822,225.285 317.655,228.951 316,232.5C 315.667,232.167 315.333,231.833 315,231.5C 314.297,233.929 314.463,236.262 315.5,238.5C 311.367,247.431 306.7,256.098 301.5,264.5C 297.511,267.338 294.178,266.671 291.5,262.5C 290.315,261.143 289.315,259.643 288.5,258C 289.489,254.553 290.156,251.053 290.5,247.5C 290.5,246.833 290.5,246.167 290.5,245.5C 291.5,244.833 292.5,244.167 293.5,243.5C 292.992,246.176 292.825,248.843 293,251.5C 294.402,246.664 295.402,241.664 296,236.5C 296.324,234.431 297.158,234.098 298.5,235.5C 299.727,229.907 301.561,224.574 304,219.5C 308.299,219.458 312.799,219.625 317.5,220C 318.044,220.717 318.711,221.217 319.5,221.5 Z"/></g>
<g><path style="opacity:0.937" fill="#688e89" d="M 259.5,204.5 C 260.369,207.78 261.036,211.113 261.5,214.5C 261.558,217.047 260.891,219.38 259.5,221.5C 257.445,222.187 255.779,223.354 254.5,225C 251.167,225.667 247.833,225.667 244.5,225C 243.74,223.559 243.074,222.059 242.5,220.5C 241.675,219.614 240.675,219.281 239.5,219.5C 238.99,216.612 239.656,214.279 241.5,212.5C 244.46,224.571 250.294,226.238 259,217.5C 260.428,208.261 256.594,204.428 247.5,206C 245.304,207.699 243.304,209.533 241.5,211.5C 240.046,208.6 241.046,207.267 244.5,207.5C 244.5,206.167 244.5,204.833 244.5,203.5C 249.562,203.274 254.562,203.608 259.5,204.5 Z"/></g>
<g><path style="opacity:1" fill="#56a096" d="M 236.5,203.5 C 236.74,206.579 236.407,209.579 235.5,212.5C 236.765,218.865 238.099,224.865 239.5,230.5C 242.397,230.875 245.063,230.375 247.5,229C 245.779,227.473 243.779,226.473 241.5,226C 241.957,225.586 242.291,225.086 242.5,224.5C 241.973,221.79 240.973,220.123 239.5,219.5C 240.675,219.281 241.675,219.614 242.5,220.5C 243.074,222.059 243.74,223.559 244.5,225C 247.833,225.667 251.167,225.667 254.5,225C 255.779,223.354 257.445,222.187 259.5,221.5C 260.891,219.38 261.558,217.047 261.5,214.5C 261.036,211.113 260.369,207.78 259.5,204.5C 261.117,205.589 261.95,207.256 262,209.5C 264.307,217.641 262.141,224.141 255.5,229C 257.885,229.556 260.218,229.39 262.5,228.5C 262.5,229.5 262.5,230.5 262.5,231.5C 262.5,232.167 262.167,232.5 261.5,232.5C 261.209,231.351 260.376,230.684 259,230.5C 251.054,232.862 243.221,235.195 235.5,237.5C 235.53,236.503 235.03,235.836 234,235.5C 232.365,235.878 230.865,236.544 229.5,237.5C 229.709,238.086 230.043,238.586 230.5,239C 228.866,239.494 227.199,239.66 225.5,239.5C 228.689,236.484 231.523,233.151 234,229.5C 234.667,227.167 234.667,224.833 234,222.5C 232.455,220.791 231.622,218.791 231.5,216.5C 232.964,212.654 234.131,208.654 235,204.5C 235.383,203.944 235.883,203.611 236.5,203.5 Z M 241.5,212.5 C 241.5,212.167 241.5,211.833 241.5,211.5C 243.304,209.533 245.304,207.699 247.5,206C 256.594,204.428 260.428,208.261 259,217.5C 250.294,226.238 244.46,224.571 241.5,212.5 Z"/></g>
<g><path style="opacity:0.463" fill="#5f8984" d="M 73.5,179.5 C 75.4628,181.967 76.6295,184.967 77,188.5C 77.3826,187.944 77.8826,187.611 78.5,187.5C 78.5,188.167 78.8333,188.5 79.5,188.5C 79.2436,190.792 79.5769,192.959 80.5,195C 78.0659,199.032 76.0659,203.199 74.5,207.5C 73.8826,207.611 73.3826,207.944 73,208.5C 72.1747,212.211 72.3414,215.878 73.5,219.5C 75.509,222.196 77.509,224.863 79.5,227.5C 79.6107,228.117 79.944,228.617 80.5,229C 87.3947,231.772 94.3947,231.938 101.5,229.5C 103.83,226.215 106.163,222.882 108.5,219.5C 109.496,219.586 110.329,219.252 111,218.5C 112.748,211.383 111.248,205.216 106.5,200C 104.382,199.74 102.716,198.74 101.5,197C 99.5273,196.505 97.5273,196.338 95.5,196.5C 92.5201,195.171 91.1868,192.837 91.5,189.5C 107.791,192.296 115.291,201.963 114,218.5C 106.823,235.592 94.9899,239.759 78.5,231C 70.9311,224.504 68.4311,216.338 71,206.5C 73.4379,202.623 75.6045,198.623 77.5,194.5C 76.0064,189.524 74.673,184.524 73.5,179.5 Z M 100.5,210.5 C 101.064,219.099 97.0641,222.599 88.5,221C 81.9517,215.246 81.9517,209.746 88.5,204.5C 94.0358,203.268 98.0358,205.268 100.5,210.5 Z"/></g>
<g><path style="opacity:1" fill="#5bac9c" d="M 108.5,219.5 C 106.163,222.882 103.83,226.215 101.5,229.5C 94.3947,231.938 87.3947,231.772 80.5,229C 79.944,228.617 79.6107,228.117 79.5,227.5C 79.4257,223.839 80.4257,223.172 82.5,225.5C 89.3625,228.774 95.6958,228.108 101.5,223.5C 102.562,221.978 103.229,220.312 103.5,218.5C 103.91,213.333 103.243,208.333 101.5,203.5C 102.682,201.355 104.182,201.355 106,203.5C 108.258,208.526 109.091,213.859 108.5,219.5 Z"/></g>
<g><path style="opacity:1" fill="#51a093" d="M 81.5,206.5 C 77.8091,222.644 83.8091,228.144 99.5,223C 100.883,221.729 101.883,220.229 102.5,218.5C 102.833,218.5 103.167,218.5 103.5,218.5C 103.229,220.312 102.562,221.978 101.5,223.5C 95.6958,228.108 89.3625,228.774 82.5,225.5C 80.4257,223.172 79.4257,223.839 79.5,227.5C 77.509,224.863 75.509,222.196 73.5,219.5C 72.3414,215.878 72.1747,212.211 73,208.5C 73.3826,207.944 73.8826,207.611 74.5,207.5C 76.1667,207.5 77.8333,207.5 79.5,207.5C 79.3379,205.473 79.5045,203.473 80,201.5C 81.2692,202.905 81.7692,204.571 81.5,206.5 Z"/></g>
<g><path style="opacity:0.655" fill="#678e88" d="M 88.5,204.5 C 81.9517,209.746 81.9517,215.246 88.5,221C 97.0641,222.599 101.064,219.099 100.5,210.5C 102.369,212.635 103.036,215.302 102.5,218.5C 101.883,220.229 100.883,221.729 99.5,223C 83.8091,228.144 77.8091,222.644 81.5,206.5C 82.1667,206.167 82.8333,205.833 83.5,205.5C 84.9764,203.568 86.6431,203.235 88.5,204.5 Z"/></g>
<g><path style="opacity:1" fill="#569a92" d="M 95.5,196.5 C 97.5273,196.338 99.5273,196.505 101.5,197C 102.716,198.74 104.382,199.74 106.5,200C 111.248,205.216 112.748,211.383 111,218.5C 110.329,219.252 109.496,219.586 108.5,219.5C 109.091,213.859 108.258,208.526 106,203.5C 104.182,201.355 102.682,201.355 101.5,203.5C 103.243,208.333 103.91,213.333 103.5,218.5C 103.167,218.5 102.833,218.5 102.5,218.5C 103.036,215.302 102.369,212.635 100.5,210.5C 98.0358,205.268 94.0358,203.268 88.5,204.5C 86.6431,203.235 84.9764,203.568 83.5,205.5C 85.4148,200.688 88.9148,199.021 94,200.5C 95.2284,199.003 95.7284,197.669 95.5,196.5 Z"/></g>
<g><path style="opacity:0.671" fill="#6b8e8e" d="M 252.5,192.5 C 253.263,193.268 254.263,193.768 255.5,194C 251.106,194.303 246.773,194.97 242.5,196C 240.881,196.236 239.881,197.069 239.5,198.5C 239.5,199.167 239.167,199.5 238.5,199.5C 237.194,200.968 235.694,202.301 234,203.5C 232.953,208.038 231.453,212.372 229.5,216.5C 230.319,219.624 231.319,222.624 232.5,225.5C 232.308,227.577 231.808,229.577 231,231.5C 222.654,241.462 212.821,248.462 201.5,252.5C 207.933,247.914 214.266,243.08 220.5,238C 224.203,234.633 227.536,230.966 230.5,227C 224.402,208.017 230.902,196.183 250,191.5C 250.902,191.743 251.735,192.077 252.5,192.5 Z"/></g>
<g><path style="opacity:0.991" fill="#589592" d="M 238.5,199.5 C 240.148,201.872 239.481,203.206 236.5,203.5C 235.883,203.611 235.383,203.944 235,204.5C 234.131,208.654 232.964,212.654 231.5,216.5C 231.622,218.791 232.455,220.791 234,222.5C 234.667,224.833 234.667,227.167 234,229.5C 231.523,233.151 228.689,236.484 225.5,239.5C 222.694,243.69 219.194,247.357 215,250.5C 213.16,249.167 212.66,249.334 213.5,251C 209.688,253.316 206.022,255.816 202.5,258.5C 201.264,260.034 200.764,261.7 201,263.5C 203.7,260.986 206.867,259.319 210.5,258.5C 209.694,259.728 208.694,260.728 207.5,261.5C 206.386,262.885 205.386,264.385 204.5,266C 200.977,267.224 197.644,268.724 194.5,270.5C 196.141,268.5 197.808,266.5 199.5,264.5C 199.167,263.833 198.833,263.167 198.5,262.5C 196.382,263.946 194.049,264.613 191.5,264.5C 191.5,262.5 191.5,260.5 191.5,258.5C 194.494,256 197.827,254 201.5,252.5C 212.821,248.462 222.654,241.462 231,231.5C 231.808,229.577 232.308,227.577 232.5,225.5C 231.319,222.624 230.319,219.624 229.5,216.5C 231.453,212.372 232.953,208.038 234,203.5C 235.694,202.301 237.194,200.968 238.5,199.5 Z"/></g>
<g><path style="opacity:1" fill="#528987" d="M 208.5,213.5 C 208.5,215.167 208.5,216.833 208.5,218.5C 201.002,228.165 192.335,236.665 182.5,244C 173.944,249.398 165.277,254.564 156.5,259.5C 153.231,263.725 150.231,268.059 147.5,272.5C 147.371,270.784 147.038,269.117 146.5,267.5C 147.496,267.586 148.329,267.252 149,266.5C 149.497,263.854 149.664,261.187 149.5,258.5C 150.5,258.5 151.5,258.5 152.5,258.5C 152.433,257.041 152.766,255.708 153.5,254.5C 155.857,254.663 158.19,254.497 160.5,254C 162.196,251.495 164.53,249.995 167.5,249.5C 169.473,247.719 170.807,245.552 171.5,243C 173.441,242.257 175.274,242.424 177,243.5C 177.483,242.552 177.649,241.552 177.5,240.5C 176.127,240.657 174.793,240.49 173.5,240C 175.577,239.808 177.577,239.308 179.5,238.5C 180.33,236.865 180.497,235.198 180,233.5C 184.242,233.965 187.408,232.132 189.5,228C 191.315,227.243 192.981,226.41 194.5,225.5C 198.846,224.065 201.346,221.065 202,216.5C 202.414,216.957 202.914,217.291 203.5,217.5C 205.227,216.134 206.894,214.8 208.5,213.5 Z"/></g>
<g><path style="opacity:1" fill="#4b9796" d="M 191.5,218.5 C 191.166,221.491 192.166,223.824 194.5,225.5C 192.981,226.41 191.315,227.243 189.5,228C 187.408,232.132 184.242,233.965 180,233.5C 180.497,235.198 180.33,236.865 179.5,238.5C 177.577,239.308 175.577,239.808 173.5,240C 174.793,240.49 176.127,240.657 177.5,240.5C 177.649,241.552 177.483,242.552 177,243.5C 175.274,242.424 173.441,242.257 171.5,243C 170.807,245.552 169.473,247.719 167.5,249.5C 164.53,249.995 162.196,251.495 160.5,254C 158.19,254.497 155.857,254.663 153.5,254.5C 153.5,253.5 153.5,252.5 153.5,251.5C 152.127,251.657 150.793,251.49 149.5,251C 150.931,250.535 152.097,249.701 153,248.5C 160.547,251.834 164.38,249.167 164.5,240.5C 168.632,238.644 172.632,235.811 176.5,232C 180.376,231.79 182.71,229.79 183.5,226C 185.101,225.727 186.601,225.227 188,224.5C 188.941,222.273 190.108,220.273 191.5,218.5 Z"/></g>
<g><path style="opacity:0.808" fill="#638587" d="M 199.5,205.5 C 200.573,206.251 200.74,207.251 200,208.5C 197.413,211.426 194.913,214.426 192.5,217.5C 191.833,217.5 191.5,217.833 191.5,218.5C 190.108,220.273 188.941,222.273 188,224.5C 186.601,225.227 185.101,225.727 183.5,226C 182.71,229.79 180.376,231.79 176.5,232C 172.632,235.811 168.632,238.644 164.5,240.5C 159.644,243.014 154.644,245.347 149.5,247.5C 148.278,249.978 146.278,250.978 143.5,250.5C 144.29,249.206 145.29,248.039 146.5,247C 167.294,237.026 184.96,223.193 199.5,205.5 Z"/></g>
<g><path style="opacity:1" fill="#5ca89e" d="M 235.5,237.5 C 231.755,242.579 227.088,246.579 221.5,249.5C 220.054,251.618 219.387,253.951 219.5,256.5C 216.813,256.336 214.146,256.503 211.5,257C 210.944,257.383 210.611,257.883 210.5,258.5C 206.867,259.319 203.7,260.986 201,263.5C 200.764,261.7 201.264,260.034 202.5,258.5C 206.022,255.816 209.688,253.316 213.5,251C 212.66,249.334 213.16,249.167 215,250.5C 219.194,247.357 222.694,243.69 225.5,239.5C 227.199,239.66 228.866,239.494 230.5,239C 230.043,238.586 229.709,238.086 229.5,237.5C 230.865,236.544 232.365,235.878 234,235.5C 235.03,235.836 235.53,236.503 235.5,237.5 Z"/></g>
<g><path style="opacity:0.931" fill="#648f8a" d="M 261.5,232.5 C 259.142,234.129 256.476,235.295 253.5,236C 249.082,236.208 244.749,236.874 240.5,238C 232.26,247.406 222.926,255.573 212.5,262.5C 210.958,261.699 209.292,261.366 207.5,261.5C 208.694,260.728 209.694,259.728 210.5,258.5C 210.611,257.883 210.944,257.383 211.5,257C 214.146,256.503 216.813,256.336 219.5,256.5C 219.387,253.951 220.054,251.618 221.5,249.5C 227.088,246.579 231.755,242.579 235.5,237.5C 243.221,235.195 251.054,232.862 259,230.5C 260.376,230.684 261.209,231.351 261.5,232.5 Z"/></g>
<g><path style="opacity:0.965" fill="#4c7280" d="M 84.5,261.5 C 77.9388,259.526 71.2721,257.86 64.5,256.5C 64.1667,255.833 63.8333,255.167 63.5,254.5C 62.7372,252.433 61.4039,250.766 59.5,249.5C 56.2836,248.398 53.617,246.564 51.5,244C 49.9751,242.991 48.3084,242.491 46.5,242.5C 44.0162,241.277 41.6829,239.777 39.5,238C 40.5536,236.612 40.7203,235.112 40,233.5C 37.6969,231.607 35.5302,229.607 33.5,227.5C 31.2287,226.637 28.8954,226.637 26.5,227.5C 26.2924,229.92 26.6258,232.253 27.5,234.5C 26.8333,235.167 26.1667,235.833 25.5,236.5C 27.8782,239.975 29.8782,243.642 31.5,247.5C 32.325,248.386 33.325,248.719 34.5,248.5C 36.5269,252.708 39.1936,256.541 42.5,260C 41.5494,260.718 41.3828,261.551 42,262.5C 43,264.833 44.6667,266.5 47,267.5C 47.3838,270.06 48.2171,272.394 49.5,274.5C 38.1997,262.007 29.033,248.007 22,232.5C 22.4869,227.324 25.3202,223.824 30.5,222C 32.2889,221.48 33.9556,221.813 35.5,223C 39.1667,227.333 42.8333,231.667 46.5,236C 58.526,245.539 71.1926,254.039 84.5,261.5 Z"/></g>
<g><path style="opacity:1" fill="#296b85" d="M 46.5,242.5 C 45.1477,244.845 43.1477,246.512 40.5,247.5C 38.2777,246.222 35.9443,245.222 33.5,244.5C 33.1667,244.833 32.8333,245.167 32.5,245.5C 33.1925,246.518 33.8592,247.518 34.5,248.5C 33.325,248.719 32.325,248.386 31.5,247.5C 29.8782,243.642 27.8782,239.975 25.5,236.5C 26.1667,235.833 26.8333,235.167 27.5,234.5C 26.6258,232.253 26.2924,229.92 26.5,227.5C 28.8954,226.637 31.2287,226.637 33.5,227.5C 35.5302,229.607 37.6969,231.607 40,233.5C 40.7203,235.112 40.5536,236.612 39.5,238C 41.6829,239.777 44.0162,241.277 46.5,242.5 Z"/></g>
<g><path style="opacity:1" fill="#2a7184" d="M 46.5,242.5 C 48.3084,242.491 49.9751,242.991 51.5,244C 53.617,246.564 56.2836,248.398 59.5,249.5C 61.4039,250.766 62.7372,252.433 63.5,254.5C 60.5557,252.689 57.5557,250.856 54.5,249C 51.3436,248.397 48.3436,248.897 45.5,250.5C 44.377,248.711 43.0436,248.378 41.5,249.5C 42.4196,251.786 42.4196,254.119 41.5,256.5C 43.5914,256.318 45.5914,256.652 47.5,257.5C 47.6291,262.447 49.2957,266.614 52.5,270C 55.7747,270.982 58.4414,270.149 60.5,267.5C 62.3464,267.222 63.6798,267.889 64.5,269.5C 61.441,272.391 59.1077,275.724 57.5,279.5C 56.8333,279.833 56.1667,280.167 55.5,280.5C 53.215,278.882 51.215,276.882 49.5,274.5C 48.2171,272.394 47.3838,270.06 47,267.5C 44.6667,266.5 43,264.833 42,262.5C 41.3828,261.551 41.5494,260.718 42.5,260C 39.1936,256.541 36.5269,252.708 34.5,248.5C 33.8592,247.518 33.1925,246.518 32.5,245.5C 32.8333,245.167 33.1667,244.833 33.5,244.5C 35.9443,245.222 38.2777,246.222 40.5,247.5C 43.1477,246.512 45.1477,244.845 46.5,242.5 Z"/></g>
<g><path style="opacity:1" fill="#276e8a" d="M 63.5,254.5 C 63.8333,255.167 64.1667,255.833 64.5,256.5C 64.5,256.833 64.5,257.167 64.5,257.5C 62.3266,258.166 61.9933,259.333 63.5,261C 62.2108,263.035 61.2108,265.201 60.5,267.5C 58.4414,270.149 55.7747,270.982 52.5,270C 49.2957,266.614 47.6291,262.447 47.5,257.5C 45.5914,256.652 43.5914,256.318 41.5,256.5C 42.4196,254.119 42.4196,251.786 41.5,249.5C 43.0436,248.378 44.377,248.711 45.5,250.5C 48.3436,248.897 51.3436,248.397 54.5,249C 57.5557,250.856 60.5557,252.689 63.5,254.5 Z"/></g>
<g><path style="opacity:1" fill="#488e93" d="M 164.5,240.5 C 164.38,249.167 160.547,251.834 153,248.5C 152.097,249.701 150.931,250.535 149.5,251C 150.793,251.49 152.127,251.657 153.5,251.5C 153.5,252.5 153.5,253.5 153.5,254.5C 152.766,255.708 152.433,257.041 152.5,258.5C 151.5,258.5 150.5,258.5 149.5,258.5C 149.664,261.187 149.497,263.854 149,266.5C 148.329,267.252 147.496,267.586 146.5,267.5C 143.99,267.946 141.99,267.28 140.5,265.5C 141.637,261.959 142.637,258.293 143.5,254.5C 143.457,253.584 143.124,252.917 142.5,252.5C 142.833,251.833 143.167,251.167 143.5,250.5C 146.278,250.978 148.278,249.978 149.5,247.5C 154.644,245.347 159.644,243.014 164.5,240.5 Z"/></g>
<g><path style="opacity:0.282" fill="#80a4ab" d="M 290.5,247.5 C 290.156,251.053 289.489,254.553 288.5,258C 289.315,259.643 290.315,261.143 291.5,262.5C 288.661,261.824 286.995,259.991 286.5,257C 287.761,253.692 289.094,250.525 290.5,247.5 Z"/></g>
<g><path style="opacity:0.996" fill="#668887" d="M 255.5,271.5 C 254.149,268.172 255.483,266.839 259.5,267.5C 259.877,264.475 260.044,261.475 260,258.5C 256.164,255.507 253.997,256.507 253.5,261.5C 253.167,262.5 252.5,263.167 251.5,263.5C 249.5,263.833 247.5,264.167 245.5,264.5C 244.836,267.015 243.503,269.181 241.5,271C 235.806,275.232 229.806,278.732 223.5,281.5C 222.391,281.443 221.391,281.11 220.5,280.5C 230.598,273.584 240.598,266.418 250.5,259C 253.36,256.14 256.194,253.306 259,250.5C 267.158,258.888 265.991,265.888 255.5,271.5 Z"/></g>
<g><path style="opacity:1" fill="#2a718b" d="M 64.5,257.5 C 65.5203,258.954 66.687,259.287 68,258.5C 68.7922,260.587 69.9588,262.421 71.5,264C 70.3279,264.419 69.3279,265.085 68.5,266C 69.187,271.802 69.8537,277.635 70.5,283.5C 68.1889,284.575 65.8555,284.575 63.5,283.5C 60.4779,283.658 58.4779,282.325 57.5,279.5C 59.1077,275.724 61.441,272.391 64.5,269.5C 63.6798,267.889 62.3464,267.222 60.5,267.5C 61.2108,265.201 62.2108,263.035 63.5,261C 61.9933,259.333 62.3266,258.166 64.5,257.5 Z"/></g>
<g><path style="opacity:1" fill="#2f748a" d="M 64.5,256.5 C 71.2721,257.86 77.9388,259.526 84.5,261.5C 85.791,261.263 86.791,261.596 87.5,262.5C 84.8333,262.833 82.1667,263.167 79.5,263.5C 77.7376,263.643 76.0709,263.309 74.5,262.5C 72.8222,266.474 74.1555,268.474 78.5,268.5C 78.3367,270.857 78.5034,273.19 79,275.5C 79.3333,274.833 79.6667,274.167 80,273.5C 80.2784,274.416 80.7784,275.082 81.5,275.5C 81.5,276.167 81.8333,276.5 82.5,276.5C 83.1667,277.5 83.8333,278.5 84.5,279.5C 82.7929,283.848 79.7929,284.848 75.5,282.5C 75.1667,285.5 76.5,286.833 79.5,286.5C 79.6633,288.857 79.4966,291.19 79,293.5C 78.0138,294.171 76.8471,294.171 75.5,293.5C 74.448,293.649 73.448,293.483 72.5,293C 69.9357,289.273 66.9357,286.106 63.5,283.5C 65.8555,284.575 68.1889,284.575 70.5,283.5C 69.8537,277.635 69.187,271.802 68.5,266C 69.3279,265.085 70.3279,264.419 71.5,264C 69.9588,262.421 68.7922,260.587 68,258.5C 66.687,259.287 65.5203,258.954 64.5,257.5C 64.5,257.167 64.5,256.833 64.5,256.5 Z"/></g>
<g><path style="opacity:1" fill="#357e8d" d="M 79.5,263.5 C 81.8863,264.92 84.553,265.92 87.5,266.5C 88.5312,267.7 89.3645,269.034 90,270.5C 90.3333,270.167 90.6667,269.833 91,269.5C 91.7387,270.574 92.7387,271.241 94,271.5C 96.054,270.811 97.054,269.811 97,268.5C 98.7659,269.233 100.599,269.567 102.5,269.5C 102.36,271.124 103.027,272.29 104.5,273C 109.464,273.912 114.464,274.412 119.5,274.5C 119.36,276.124 120.027,277.29 121.5,278C 120.833,278.333 120.167,278.667 119.5,279C 115.296,279.66 111.296,279.16 107.5,277.5C 105.955,277.511 104.622,277.844 103.5,278.5C 97.3158,276.703 90.9825,275.036 84.5,273.5C 82.9704,273.64 81.9704,274.307 81.5,275.5C 80.7784,275.082 80.2784,274.416 80,273.5C 79.6667,274.167 79.3333,274.833 79,275.5C 78.5034,273.19 78.3367,270.857 78.5,268.5C 74.1555,268.474 72.8222,266.474 74.5,262.5C 76.0709,263.309 77.7376,263.643 79.5,263.5 Z"/></g>
<g><path style="opacity:1" fill="#3f8793" d="M 140.5,265.5 C 141.99,267.28 143.99,267.946 146.5,267.5C 147.038,269.117 147.371,270.784 147.5,272.5C 147.5,273.167 147.167,273.5 146.5,273.5C 146.738,269.901 145.738,269.567 143.5,272.5C 142.478,275.202 141.478,277.869 140.5,280.5C 137.999,281.826 135.332,282.326 132.5,282C 131.672,281.085 130.672,280.419 129.5,280C 130.258,278.636 129.758,277.469 128,276.5C 126.932,280.054 124.432,281.721 120.5,281.5C 114.769,280.601 109.102,279.601 103.5,278.5C 104.622,277.844 105.955,277.511 107.5,277.5C 111.296,279.16 115.296,279.66 119.5,279C 120.167,278.667 120.833,278.333 121.5,278C 120.027,277.29 119.36,276.124 119.5,274.5C 123.541,274.675 127.541,274.842 131.5,275C 134.534,273.809 136.201,271.642 136.5,268.5C 137.5,268.5 138.5,268.5 139.5,268.5C 139.263,267.209 139.596,266.209 140.5,265.5 Z"/></g>
<g><path style="opacity:1" fill="#4d7982" d="M 142.5,252.5 C 143.124,252.917 143.457,253.584 143.5,254.5C 142.637,258.293 141.637,261.959 140.5,265.5C 139.596,266.209 139.263,267.209 139.5,268.5C 138.5,268.5 137.5,268.5 136.5,268.5C 136.201,271.642 134.534,273.809 131.5,275C 127.541,274.842 123.541,274.675 119.5,274.5C 114.464,274.412 109.464,273.912 104.5,273C 103.027,272.29 102.36,271.124 102.5,269.5C 100.599,269.567 98.7659,269.233 97,268.5C 97.054,269.811 96.054,270.811 94,271.5C 92.7387,271.241 91.7387,270.574 91,269.5C 90.6667,269.833 90.3333,270.167 90,270.5C 89.3645,269.034 88.5312,267.7 87.5,266.5C 84.553,265.92 81.8863,264.92 79.5,263.5C 82.1667,263.167 84.8333,262.833 87.5,262.5C 101.67,267.967 116.336,270.801 131.5,271C 135.067,264.687 138.734,258.521 142.5,252.5 Z"/></g>
<g><path style="opacity:0.725" fill="#5d8687" d="M 207.5,261.5 C 209.292,261.366 210.958,261.699 212.5,262.5C 204.575,268.473 196.241,273.973 187.5,279C 183.689,284.146 180.022,289.312 176.5,294.5C 175.427,292.653 175.427,290.653 176.5,288.5C 178.013,286.484 178.847,284.151 179,281.5C 183.159,278.341 186.992,274.841 190.5,271C 191.793,270.51 193.127,270.343 194.5,270.5C 197.644,268.724 200.977,267.224 204.5,266C 205.386,264.385 206.386,262.885 207.5,261.5 Z"/></g>
<g><path style="opacity:0.533" fill="#5c7d85" d="M 100.5,281.5 C 100.062,281.435 99.7284,281.601 99.5,282C 113.387,287.853 127.72,291.353 142.5,292.5C 141.167,292.5 139.833,292.5 138.5,292.5C 130.823,293.407 123.156,293.074 115.5,291.5C 111.744,289.581 107.744,288.248 103.5,287.5C 98.2487,285.474 93.2487,282.974 88.5,280C 87.2068,279.51 85.8734,279.343 84.5,279.5C 83.8333,278.5 83.1667,277.5 82.5,276.5C 85.9775,275.881 89.6441,275.881 93.5,276.5C 92.74,280.6 94.0734,281.6 97.5,279.5C 99.0296,279.64 100.03,280.307 100.5,281.5 Z"/></g>
<g><path style="opacity:1" fill="#377b8d" d="M 84.5,279.5 C 85.8734,279.343 87.2068,279.51 88.5,280C 93.2487,282.974 98.2487,285.474 103.5,287.5C 101.375,289.824 98.8754,290.491 96,289.5C 95.7822,292.426 95.2822,295.26 94.5,298C 96.2495,299.319 98.2495,299.819 100.5,299.5C 103.909,301.5 107.243,303.5 110.5,305.5C 110.5,306.5 110.5,307.5 110.5,308.5C 107.421,308.26 104.421,308.593 101.5,309.5C 96.1733,306.509 90.5066,304.009 84.5,302C 81.1673,299.482 78.1673,296.649 75.5,293.5C 76.8471,294.171 78.0138,294.171 79,293.5C 79.4966,291.19 79.6633,288.857 79.5,286.5C 76.5,286.833 75.1667,285.5 75.5,282.5C 79.7929,284.848 82.7929,283.848 84.5,279.5 Z"/></g>
<g><path style="opacity:0.969" fill="#4e8188" d="M 146.5,273.5 C 145.163,277.673 143.163,281.507 140.5,285C 126.907,286.331 113.574,285.164 100.5,281.5C 100.03,280.307 99.0296,279.64 97.5,279.5C 94.0734,281.6 92.74,280.6 93.5,276.5C 89.6441,275.881 85.9775,275.881 82.5,276.5C 81.8333,276.5 81.5,276.167 81.5,275.5C 81.9704,274.307 82.9704,273.64 84.5,273.5C 90.9825,275.036 97.3158,276.703 103.5,278.5C 109.102,279.601 114.769,280.601 120.5,281.5C 124.432,281.721 126.932,280.054 128,276.5C 129.758,277.469 130.258,278.636 129.5,280C 130.672,280.419 131.672,281.085 132.5,282C 135.332,282.326 137.999,281.826 140.5,280.5C 141.478,277.869 142.478,275.202 143.5,272.5C 145.738,269.567 146.738,269.901 146.5,273.5 Z"/></g>
<g><path style="opacity:1" fill="#519c9d" d="M 194.5,270.5 C 193.127,270.343 191.793,270.51 190.5,271C 186.992,274.841 183.159,278.341 179,281.5C 178.847,284.151 178.013,286.484 176.5,288.5C 175.213,289.768 174.213,289.435 173.5,287.5C 172.713,288.242 172.047,289.075 171.5,290C 170.563,290.692 169.897,290.525 169.5,289.5C 171.404,278.335 177.571,270.669 188,266.5C 188.333,266.833 188.667,267.167 189,267.5C 189.852,266.429 190.685,265.429 191.5,264.5C 194.049,264.613 196.382,263.946 198.5,262.5C 198.833,263.167 199.167,263.833 199.5,264.5C 197.808,266.5 196.141,268.5 194.5,270.5 Z"/></g>
<g><path style="opacity:1" fill="#63b0a5" d="M 208.5,308.5 C 207.85,308.196 207.183,307.863 206.5,307.5C 205.143,309.186 203.81,310.852 202.5,312.5C 201.402,311.399 201.235,310.066 202,308.5C 209.094,299.07 217.261,290.57 226.5,283C 231.461,279.18 236.794,275.847 242.5,273C 245.578,269.819 248.578,266.652 251.5,263.5C 252.5,263.167 253.167,262.5 253.5,261.5C 254.583,261.461 255.583,261.127 256.5,260.5C 256.833,261 257.167,261.5 257.5,262C 254.379,264.932 252.379,268.432 251.5,272.5C 246.612,274.388 241.945,276.721 237.5,279.5C 233.477,285.995 227.81,289.661 220.5,290.5C 220.579,291.93 220.246,293.264 219.5,294.5C 214.516,296.634 211.683,300.301 211,305.5C 209.955,306.373 209.122,307.373 208.5,308.5 Z"/></g>
<g><path style="opacity:0.943" fill="#597e7e" d="M 220.5,280.5 C 221.391,281.11 222.391,281.443 223.5,281.5C 224.332,282.329 223.999,283.162 222.5,284C 220.668,284.748 219.001,285.748 217.5,287C 215.527,287.495 213.527,287.662 211.5,287.5C 209.909,292.67 207.243,297.337 203.5,301.5C 201.365,305.255 199.865,309.255 199,313.5C 197.351,314.885 196.184,316.551 195.5,318.5C 183.833,318.5 172.167,318.5 160.5,318.5C 155.084,316.883 149.417,316.216 143.5,316.5C 143.918,315.778 144.584,315.278 145.5,315C 142.903,314.221 142.903,313.721 145.5,313.5C 160.781,315.342 176.115,315.842 191.5,315C 192.667,313.833 193.833,312.667 195,311.5C 198.6,304.243 202.6,297.243 207,290.5C 211.084,286.548 215.584,283.214 220.5,280.5 Z"/></g>
<g><path style="opacity:0.682" fill="#5a8589" d="M 191.5,258.5 C 191.5,260.5 191.5,262.5 191.5,264.5C 190.685,265.429 189.852,266.429 189,267.5C 188.667,267.167 188.333,266.833 188,266.5C 177.571,270.669 171.404,278.335 169.5,289.5C 167.732,291.508 166.066,293.674 164.5,296C 155.965,296.991 147.631,296.491 139.5,294.5C 138.662,294.158 138.328,293.492 138.5,292.5C 139.833,292.5 141.167,292.5 142.5,292.5C 148.842,292.666 155.175,292.5 161.5,292C 162.667,290.833 163.833,289.667 165,288.5C 168.543,279.235 173.709,271.068 180.5,264C 184.22,262.14 187.886,260.307 191.5,258.5 Z"/></g>
<g><path style="opacity:0.922" fill="#63928b" d="M 255.5,271.5 C 244.925,281.233 233.592,290.067 221.5,298C 216.112,304.635 211.112,311.468 206.5,318.5C 206.179,317.183 205.846,315.849 205.5,314.5C 207.065,313.471 208.065,311.471 208.5,308.5C 209.122,307.373 209.955,306.373 211,305.5C 211.683,300.301 214.516,296.634 219.5,294.5C 220.246,293.264 220.579,291.93 220.5,290.5C 227.81,289.661 233.477,285.995 237.5,279.5C 241.945,276.721 246.612,274.388 251.5,272.5C 252.379,268.432 254.379,264.932 257.5,262C 257.167,261.5 256.833,261 256.5,260.5C 255.583,261.127 254.583,261.461 253.5,261.5C 253.997,256.507 256.164,255.507 260,258.5C 260.044,261.475 259.877,264.475 259.5,267.5C 255.483,266.839 254.149,268.172 255.5,271.5 Z"/></g>
<g><path style="opacity:1" fill="#327f8c" d="M 103.5,287.5 C 107.744,288.248 111.744,289.581 115.5,291.5C 116.97,292.978 118.637,294.311 120.5,295.5C 115.138,298.638 109.471,299.305 103.5,297.5C 101.97,297.64 100.97,298.307 100.5,299.5C 98.2495,299.819 96.2495,299.319 94.5,298C 95.2822,295.26 95.7822,292.426 96,289.5C 98.8754,290.491 101.375,289.824 103.5,287.5 Z"/></g>
<g><path style="opacity:1" fill="#4a8b96" d="M 115.5,291.5 C 123.156,293.074 130.823,293.407 138.5,292.5C 138.328,293.492 138.662,294.158 139.5,294.5C 139.389,295.117 139.056,295.617 138.5,296C 141.772,296.437 143.439,298.27 143.5,301.5C 149.68,303.421 156.013,304.421 162.5,304.5C 163.289,304.783 163.956,305.283 164.5,306C 157.833,306.667 151.167,306.667 144.5,306C 144.043,305.586 143.709,305.086 143.5,304.5C 134.476,302.777 125.476,302.444 116.5,303.5C 115.833,303.5 115.5,303.833 115.5,304.5C 114.252,306.69 112.586,307.023 110.5,305.5C 107.243,303.5 103.909,301.5 100.5,299.5C 100.97,298.307 101.97,297.64 103.5,297.5C 109.471,299.305 115.138,298.638 120.5,295.5C 118.637,294.311 116.97,292.978 115.5,291.5 Z"/></g>
<g><path style="opacity:0.992" fill="#507d87" d="M 57.5,279.5 C 58.4779,282.325 60.4779,283.658 63.5,283.5C 66.9357,286.106 69.9357,289.273 72.5,293C 73.448,293.483 74.448,293.649 75.5,293.5C 78.1673,296.649 81.1673,299.482 84.5,302C 90.5066,304.009 96.1733,306.509 101.5,309.5C 104.421,308.593 107.421,308.26 110.5,308.5C 110.5,307.5 110.5,306.5 110.5,305.5C 112.586,307.023 114.252,306.69 115.5,304.5C 115.833,304.5 116.167,304.5 116.5,304.5C 117.167,304.5 117.833,304.5 118.5,304.5C 118.5,305.167 118.833,305.5 119.5,305.5C 120.167,305.5 120.833,305.5 121.5,305.5C 129.185,309.173 137.185,311.839 145.5,313.5C 142.903,313.721 142.903,314.221 145.5,315C 144.584,315.278 143.918,315.778 143.5,316.5C 143.5,317.167 143.5,317.833 143.5,318.5C 138.99,317.827 134.657,316.661 130.5,315C 128.437,311.625 125.437,309.625 121.5,309C 118.428,309.063 115.428,308.896 112.5,308.5C 104.992,309.44 104.159,311.773 110,315.5C 117.302,318.157 124.802,319.99 132.5,321C 134.91,321.6 136.91,322.766 138.5,324.5C 136.5,324.833 134.5,325.167 132.5,325.5C 102.343,317.93 76.6761,302.93 55.5,280.5C 56.1667,280.167 56.8333,279.833 57.5,279.5 Z"/></g>
<g><path style="opacity:1" fill="#4b9598" d="M 176.5,288.5 C 175.427,290.653 175.427,292.653 176.5,294.5C 176.672,295.492 176.338,296.158 175.5,296.5C 174.735,296.077 173.902,295.743 173,295.5C 171.009,297.473 169.509,299.807 168.5,302.5C 166.343,303.05 164.343,303.717 162.5,304.5C 156.013,304.421 149.68,303.421 143.5,301.5C 143.439,298.27 141.772,296.437 138.5,296C 139.056,295.617 139.389,295.117 139.5,294.5C 147.631,296.491 155.965,296.991 164.5,296C 166.066,293.674 167.732,291.508 169.5,289.5C 169.897,290.525 170.563,290.692 171.5,290C 172.047,289.075 172.713,288.242 173.5,287.5C 174.213,289.435 175.213,289.768 176.5,288.5 Z"/></g>
<g><path style="opacity:1" fill="#569e98" d="M 251.5,263.5 C 248.578,266.652 245.578,269.819 242.5,273C 236.794,275.847 231.461,279.18 226.5,283C 217.261,290.57 209.094,299.07 202,308.5C 201.235,310.066 201.402,311.399 202.5,312.5C 202.631,317.369 200.297,319.369 195.5,318.5C 196.184,316.551 197.351,314.885 199,313.5C 199.865,309.255 201.365,305.255 203.5,301.5C 207.243,297.337 209.909,292.67 211.5,287.5C 213.527,287.662 215.527,287.495 217.5,287C 219.001,285.748 220.668,284.748 222.5,284C 223.999,283.162 224.332,282.329 223.5,281.5C 229.806,278.732 235.806,275.232 241.5,271C 243.503,269.181 244.836,267.015 245.5,264.5C 247.5,264.167 249.5,263.833 251.5,263.5 Z"/></g>
<g><path style="opacity:0.378" fill="#658f91" d="M 175.5,296.5 C 172.285,306.7 165.285,310.7 154.5,308.5C 143.424,308.121 132.424,307.121 121.5,305.5C 120.833,305.5 120.167,305.5 119.5,305.5C 118.833,305.5 118.5,305.167 118.5,304.5C 117.833,304.5 117.167,304.5 116.5,304.5C 116.5,304.167 116.5,303.833 116.5,303.5C 125.476,302.444 134.476,302.777 143.5,304.5C 143.709,305.086 144.043,305.586 144.5,306C 151.167,306.667 157.833,306.667 164.5,306C 163.956,305.283 163.289,304.783 162.5,304.5C 164.343,303.717 166.343,303.05 168.5,302.5C 169.509,299.807 171.009,297.473 173,295.5C 173.902,295.743 174.735,296.077 175.5,296.5 Z"/></g>
<g><path style="opacity:0.902" fill="#6b8b87" d="M 251.5,292.5 C 253.582,292.472 255.416,293.139 257,294.5C 258.483,297.702 258.817,301.036 258,304.5C 254.592,307.453 251.092,310.287 247.5,313C 241.109,314.457 237.109,311.957 235.5,305.5C 236.098,304.205 236.598,302.872 237,301.5C 241.646,298.099 246.479,295.099 251.5,292.5 Z"/></g>
<g><path style="opacity:1" fill="#5d9f98" d="M 249.5,296.5 C 251.5,296.5 253.5,296.5 255.5,296.5C 254.577,300.712 253.243,304.712 251.5,308.5C 247.747,310.139 243.747,310.806 239.5,310.5C 239.183,307.428 239.516,304.428 240.5,301.5C 242.064,302.186 243.731,302.019 245.5,301C 247.635,300.124 248.969,298.624 249.5,296.5 Z"/></g>
<g><path style="opacity:1" fill="#3d8992" d="M 143.5,318.5 C 143.795,319.771 144.128,321.438 144.5,323.5C 143.041,323.433 141.708,323.766 140.5,324.5C 139.833,324.5 139.167,324.5 138.5,324.5C 136.91,322.766 134.91,321.6 132.5,321C 124.802,319.99 117.302,318.157 110,315.5C 104.159,311.773 104.992,309.44 112.5,308.5C 115.428,308.896 118.428,309.063 121.5,309C 125.437,309.625 128.437,311.625 130.5,315C 134.657,316.661 138.99,317.827 143.5,318.5 Z"/></g>
<g><path style="opacity:1" fill="#4c9996" d="M 208.5,308.5 C 208.065,311.471 207.065,313.471 205.5,314.5C 205.846,315.849 206.179,317.183 206.5,318.5C 206.443,319.609 206.11,320.609 205.5,321.5C 204.71,320.391 204.21,319.058 204,317.5C 202.208,319.987 200.708,322.654 199.5,325.5C 196.675,326.383 194.008,327.55 191.5,329C 182.638,329.482 173.971,328.982 165.5,327.5C 165.611,326.883 165.944,326.383 166.5,326C 169.5,325.667 172.5,325.333 175.5,325C 176.337,323.989 176.67,322.822 176.5,321.5C 170.833,321.5 165.167,321.5 159.5,321.5C 159.263,320.209 159.596,319.209 160.5,318.5C 172.167,318.5 183.833,318.5 195.5,318.5C 200.297,319.369 202.631,317.369 202.5,312.5C 203.81,310.852 205.143,309.186 206.5,307.5C 207.183,307.863 207.85,308.196 208.5,308.5 Z"/></g>
<g><path style="opacity:1" fill="#459294" d="M 143.5,316.5 C 149.417,316.216 155.084,316.883 160.5,318.5C 159.596,319.209 159.263,320.209 159.5,321.5C 165.167,321.5 170.833,321.5 176.5,321.5C 176.67,322.822 176.337,323.989 175.5,325C 172.5,325.333 169.5,325.667 166.5,326C 165.944,326.383 165.611,326.883 165.5,327.5C 158.159,327.666 150.826,327.5 143.5,327C 142.429,326.148 141.429,325.315 140.5,324.5C 141.708,323.766 143.041,323.433 144.5,323.5C 144.128,321.438 143.795,319.771 143.5,318.5C 143.5,317.833 143.5,317.167 143.5,316.5 Z"/></g>
<g><path style="opacity:0.184" fill="#689190" d="M 205.5,321.5 C 204.055,324.118 202.389,326.618 200.5,329C 195.756,330.297 190.923,331.13 186,331.5C 171.13,330.815 156.297,329.648 141.5,328C 138.372,327.159 135.372,326.325 132.5,325.5C 134.5,325.167 136.5,324.833 138.5,324.5C 139.167,324.5 139.833,324.5 140.5,324.5C 141.429,325.315 142.429,326.148 143.5,327C 150.826,327.5 158.159,327.666 165.5,327.5C 173.971,328.982 182.638,329.482 191.5,329C 194.008,327.55 196.675,326.383 199.5,325.5C 200.708,322.654 202.208,319.987 204,317.5C 204.21,319.058 204.71,320.391 205.5,321.5 Z"/></g>
</svg>
